<svg width="16" height="19" viewBox="0 0 16 19" fill="none" xmlns="http://www.w3.org/2000/svg" > <path d="M8 18.25C7.36719 18.25 6.83984 18.0391 6.41797 17.6172C5.96094 17.1953 5.75 16.6328 5.75 16H10.25C10.25 16.6328 10.0039 17.1953 9.58203 17.6172C9.125 18.0391 8.59766 18.25 8 18.25ZM15.5586 12.9766C15.7695 13.2227 15.875 13.5039 15.875 13.7852C15.875 14.0664 15.7695 14.3477 15.5586 14.5586C15.3477 14.7695 15.0664 14.875 14.75 14.875H1.25C0.898438 14.875 0.652344 14.7695 0.441406 14.5586C0.230469 14.3477 0.125 14.0664 0.125 13.7852C0.125 13.5039 0.230469 13.2227 0.441406 12.9766L0.546875 12.8359C1.07422 12.2734 1.46094 11.7461 1.74219 11.1836C2.16406 10.2695 2.375 9.03906 2.375 7.5625C2.375 6.22656 2.79688 5.03125 3.64062 4.01172C4.48438 3.02734 5.53906 2.39453 6.875 2.11328V1.375C6.875 1.09375 6.98047 0.8125 7.19141 0.601562C7.40234 0.390625 7.68359 0.25 8 0.25C8.28125 0.25 8.5625 0.390625 8.77344 0.601562C8.98438 0.8125 9.125 1.09375 9.125 1.375V2.11328C10.4258 2.39453 11.5156 3.02734 12.3594 4.01172C13.2031 5.03125 13.625 6.22656 13.625 7.5625C13.625 9.03906 13.8359 10.2695 14.2578 11.1836C14.5039 11.7461 14.8906 12.2734 15.4531 12.8359C15.4883 12.9062 15.5234 12.9766 15.5586 12.9766Z" fill="white" /> </svg>
