<svg width="133" height="34" viewBox="0 0 133 34" fill="none" xmlns="http://www.w3.org/2000/svg">
<path d="M94.3362 32.1238C95.0009 31.8095 95.3914 31.1626 95.3254 30.4851C95.2594 29.8075 94.7498 29.2328 94.0346 29.0293C93.3193 28.8257 92.5394 29.0334 92.0588 29.5554C91.5782 30.0774 91.4916 30.8108 91.8396 31.4133C92.0663 31.8084 92.457 32.1053 92.9254 32.2386C93.3938 32.3719 93.9014 32.3306 94.3362 32.1238Z" fill="#CBCBE6"/>
<path d="M90.1258 24.8442C91.0289 24.4135 91.3765 23.4002 90.9023 22.5805C90.4282 21.7607 89.3117 21.4448 88.4082 21.8747C87.5046 22.3046 87.1559 23.3176 87.6292 24.1377C87.8568 24.5321 88.2478 24.8281 88.7161 24.9606C89.1844 25.0932 89.6916 25.0513 90.1258 24.8442Z" fill="#CBCBE6"/>
<path d="M71.5625 31.783C71.9097 32.3861 72.6232 32.7397 73.3699 32.6788C74.1167 32.618 74.7494 32.1546 74.9726 31.505C75.1958 30.8555 74.9655 30.1479 74.3892 29.7127C73.8129 29.2774 73.0043 29.2004 72.341 29.5174C71.9064 29.724 71.5802 30.0788 71.4341 30.5038C71.2881 30.9287 71.3343 31.389 71.5625 31.783Z" fill="#CBCBE6"/>
<path d="M81.7009 31.6043C82.0481 32.2073 82.7616 32.561 83.5084 32.5001C84.2551 32.4392 84.8878 31.9759 85.111 31.3263C85.3342 30.6768 85.1039 29.9692 84.5276 29.534C83.9513 29.0987 83.1428 29.0217 82.4794 29.3387C82.0448 29.5452 81.7186 29.9001 81.5725 30.3251C81.4265 30.75 81.4727 31.2103 81.7009 31.6043Z" fill="#CBCBE6"/>
<path d="M79.9874 25.0229C80.8905 24.5922 81.2381 23.5789 80.7639 22.7592C80.2898 21.9395 79.1733 21.6235 78.2698 22.0534C77.3662 22.4833 77.0175 23.4963 77.4908 24.3164C77.7183 24.7108 78.1094 25.0068 78.5777 25.1393C79.046 25.2719 79.5531 25.23 79.9874 25.0229Z" fill="#CBCBE6"/>
<path d="M61.4238 31.9576C61.7702 32.5609 62.483 32.9152 63.2297 32.8553C63.9764 32.7954 64.6097 32.333 64.834 31.6839C65.0583 31.0349 64.8294 30.3271 64.2542 29.891C63.6789 29.4549 62.8707 29.3763 62.2068 29.692C61.7714 29.8978 61.4442 30.2524 61.2973 30.6774C61.1504 31.1025 61.1959 31.5631 61.4238 31.9576Z" fill="#CBCBE6"/>
<path d="M85.9156 17.5561C86.8187 17.1254 87.1663 16.1121 86.6921 15.2924C86.218 14.4727 85.1015 14.1567 84.198 14.5866C83.2944 15.0165 82.9457 16.0295 83.419 16.8496C83.6466 17.244 84.0376 17.54 84.5059 17.6725C84.9742 17.8051 85.4814 17.7632 85.9156 17.5561Z" fill="#CBCBE6"/>
<path d="M81.701 10.268C82.3656 9.95294 82.7553 9.30542 82.6882 8.62777C82.6211 7.95012 82.1105 7.376 81.3947 7.17345C80.679 6.97091 79.8992 7.1799 79.4196 7.70285C78.94 8.22579 78.855 8.95955 79.2044 9.56152C79.432 9.95588 79.823 10.2519 80.2913 10.3845C80.7596 10.517 81.2668 10.4751 81.701 10.268Z" fill="#CBCBE6"/>
<path d="M67.3432 24.491C67.8178 25.3105 68.9345 25.6259 69.8378 25.1956C70.7411 24.7654 71.0892 23.7522 70.6155 22.9323C70.1418 22.1123 69.0255 21.7959 68.1217 22.2254C67.6872 22.4319 67.3609 22.7867 67.2149 23.2117C67.0688 23.6367 67.115 24.0969 67.3432 24.491Z" fill="#CBCBE6"/>
<path d="M65.6385 17.9135C66.5416 17.4828 66.8892 16.4695 66.415 15.6498C65.9409 14.8301 64.8244 14.5142 63.9209 14.944C63.0173 15.3739 62.6686 16.3869 63.1419 17.207C63.3695 17.6014 63.7605 17.8975 64.2288 18.03C64.6971 18.1625 65.2043 18.1206 65.6385 17.9135Z" fill="#CBCBE6"/>
<path d="M75.7772 17.7348C76.4417 17.4197 76.8315 16.7722 76.7644 16.0946C76.6973 15.4169 76.1867 14.8428 75.4709 14.6402C74.7551 14.4377 73.9754 14.6467 73.4958 15.1696C73.0161 15.6926 72.9312 16.4263 73.2806 17.0283C73.5082 17.4227 73.8992 17.7187 74.3675 17.8513C74.8358 17.9838 75.343 17.9419 75.7772 17.7348Z" fill="#CBCBE6"/>
<path d="M71.5623 10.4428C72.4654 10.0121 72.813 8.99881 72.3389 8.1791C71.8647 7.35938 70.7482 7.04345 69.8447 7.47332C68.9412 7.90319 68.5925 8.91619 69.0657 9.73633C69.2933 10.1307 69.6843 10.4267 70.1526 10.5593C70.6209 10.6918 71.1281 10.6499 71.5623 10.4428Z" fill="#CBCBE6"/>
<path d="M52.0682 29.8707C51.1651 30.3014 50.8175 31.3147 51.2917 32.1344C51.7658 32.9541 52.8823 33.2701 53.7858 32.8402C54.6894 32.4103 55.0381 31.3973 54.5648 30.5772C54.3372 30.1828 53.9462 29.8868 53.4779 29.7542C53.0096 29.6217 52.5024 29.6636 52.0682 29.8707Z" fill="#CBCBE6"/>
<path d="M47.8536 22.5826C46.9505 23.0133 46.6029 24.0266 47.0771 24.8463C47.5512 25.6661 48.6677 25.982 49.5712 25.5521C50.4748 25.1222 50.8235 24.1092 50.3502 23.2891C50.1226 22.8947 49.7316 22.5987 49.2633 22.4662C48.795 22.3336 48.2878 22.3755 47.8536 22.5826Z" fill="#CBCBE6"/>
<path d="M57.2136 24.6697C57.6882 25.4892 58.8048 25.8046 59.7081 25.3743C60.6114 24.9441 60.9596 23.9309 60.4859 23.111C60.0122 22.2911 58.8959 21.9746 57.9921 22.4041C57.5575 22.6106 57.2313 22.9654 57.0852 23.3904C56.9392 23.8154 56.9854 24.2756 57.2136 24.6697Z" fill="#CBCBE6"/>
<path d="M56.2786 15.8224C55.804 15.0029 54.6874 14.6875 53.7841 15.1177C52.8808 15.548 52.5326 16.5612 53.0063 17.3811C53.48 18.201 54.5963 18.5175 55.5001 18.088C55.9347 17.8815 56.2609 17.5266 56.407 17.1017C56.553 16.6767 56.5068 16.2165 56.2786 15.8224Z" fill="#CBCBE6"/>
<path d="M31.7911 30.2242C30.888 30.6549 30.5404 31.6682 31.0146 32.4879C31.4887 33.3077 32.6052 33.6236 33.5087 33.1937C34.4123 32.7638 34.7609 31.7508 34.2877 30.9307C34.0601 30.5363 33.6691 30.2403 33.2008 30.1078C32.7325 29.9752 32.2253 30.0171 31.7911 30.2242Z" fill="#CBCBE6"/>
<path d="M41.9298 30.0494C41.0267 30.4801 40.6791 31.4934 41.1532 32.3131C41.6274 33.1329 42.7439 33.4488 43.6474 33.0189C44.5509 32.589 44.8996 31.576 44.4264 30.7559C44.1988 30.3615 43.8078 30.0655 43.3395 29.933C42.8712 29.8004 42.364 29.8423 41.9298 30.0494Z" fill="#CBCBE6"/>
<path d="M37.7151 22.7574C37.0505 23.0725 36.6608 23.72 36.7279 24.3977C36.795 25.0753 37.3056 25.6494 38.0214 25.852C38.7372 26.0545 39.5169 25.8455 39.9965 25.3226C40.4762 24.7996 40.5611 24.0659 40.2117 23.4639C39.9841 23.0695 39.5931 22.7735 39.1248 22.641C38.6565 22.5084 38.1493 22.5504 37.7151 22.7574Z" fill="#CBCBE6"/>
<path d="M21.6527 30.4025C20.7496 30.8331 20.402 31.8464 20.8761 32.6662C21.3503 33.4859 22.4668 33.8018 23.3703 33.3719C24.2738 32.9421 24.6225 31.9291 24.1493 31.1089C23.9217 30.7146 23.5307 30.4185 23.0624 30.286C22.5941 30.1535 22.0869 30.1954 21.6527 30.4025Z" fill="#CBCBE6"/>
<path d="M61.4239 10.6049C62.327 10.1742 62.6746 9.16092 62.2004 8.34121C61.7263 7.52149 60.6098 7.20556 59.7063 7.63543C58.8027 8.0653 58.454 9.0783 58.9273 9.89844C59.1549 10.2928 59.5459 10.5889 60.0142 10.7214C60.4825 10.8539 60.9897 10.812 61.4239 10.6049Z" fill="#CBCBE6"/>
<path d="M57.2137 3.33342C57.8783 3.01837 58.268 2.37085 58.2009 1.6932C58.1338 1.01555 57.6232 0.441425 56.9074 0.238883C56.1916 0.0363404 55.4119 0.24533 54.9323 0.768276C54.4527 1.29122 54.3677 2.02498 54.7171 2.62695C54.9447 3.02131 55.3357 3.31737 55.804 3.44989C56.2723 3.58241 56.7795 3.54051 57.2137 3.33342Z" fill="#CBCBE6"/>
<path d="M67.3432 3.15475C67.8895 2.8921 68.2559 2.39994 68.3205 1.842C68.3851 1.28406 68.1395 0.733527 67.6653 0.373536C67.2179 0.24361 66.7705 0.117745 66.3231 6.38225e-08C66.0822 0.0180496 65.8478 0.0802022 65.6341 0.182708C65.0295 0.449861 64.6326 0.99395 64.5977 1.60334C64.5628 2.21272 64.8955 2.7912 65.4663 3.11375C66.0371 3.4363 66.756 3.45201 67.3432 3.15475Z" fill="#CBCBE6"/>
<path d="M43.63 15.2907C42.9652 15.6051 42.5747 16.252 42.6408 16.9295C42.7068 17.6071 43.2164 18.1818 43.9316 18.3853C44.6468 18.5889 45.4268 18.3812 45.9074 17.8592C46.388 17.3372 46.4745 16.6038 46.1266 16.0013C45.8998 15.6062 45.5091 15.3093 45.0408 15.176C44.5724 15.0427 44.0648 15.084 43.63 15.2907Z" fill="#CBCBE6"/>
<path d="M41.9297 8.70913C41.4552 7.88963 40.3385 7.57419 39.4352 8.00446C38.5319 8.43473 38.1838 9.44789 38.6575 10.2678C39.1312 11.0877 40.2475 11.4042 41.1512 10.9747C41.5858 10.7682 41.9121 10.4134 42.0581 9.98838C42.2041 9.56341 42.1579 9.10318 41.9297 8.70913Z" fill="#CBCBE6"/>
<path d="M52.0681 8.53441C51.721 7.93138 51.0074 7.57774 50.2607 7.63861C49.5139 7.69948 48.8812 8.16285 48.658 8.81239C48.4348 9.46192 48.6651 10.1695 49.2414 10.6047C49.8177 11.04 50.6263 11.1171 51.2896 10.8C51.7242 10.5935 52.0505 10.2386 52.1965 9.81367C52.3425 9.3887 52.2963 8.92847 52.0681 8.53441Z" fill="#CBCBE6"/>
<path d="M47.8536 1.24233C47.379 0.42283 46.2623 0.107395 45.359 0.537666C44.4557 0.967936 44.1076 1.9811 44.5813 2.80102C45.055 3.62095 46.1713 3.93738 47.0751 3.50791C47.5096 3.3014 47.8359 2.94656 47.9819 2.52159C48.1279 2.09661 48.0818 1.63639 47.8536 1.24233Z" fill="#CBCBE6"/>
<path d="M30.0731 23.6422C29.5985 22.8227 28.4818 22.5073 27.5785 22.9376C26.6752 23.3678 26.3271 24.381 26.8008 25.2009C27.2745 26.0208 28.3908 26.3373 29.2945 25.9078C29.7291 25.7013 30.0554 25.3465 30.2014 24.9215C30.3474 24.4965 30.3013 24.0363 30.0731 23.6422Z" fill="#CBCBE6"/>
<path d="M25.8628 16.3542C25.3883 15.5346 24.2716 15.2192 23.3683 15.6495C22.465 16.0798 22.1169 17.0929 22.5906 17.9128C23.0643 18.7328 24.1806 19.0492 25.0843 18.6197C25.5189 18.4132 25.8452 18.0584 25.9912 17.6334C26.1372 17.2084 26.0911 16.7482 25.8628 16.3542Z" fill="#CBCBE6"/>
<path d="M36.0237 16.1759C35.5492 15.3564 34.4325 15.041 33.5292 15.4713C32.6259 15.9015 32.2777 16.9147 32.7515 17.7346C33.2252 18.5545 34.3415 18.871 35.2452 18.4415C35.6798 18.235 36.0061 17.8802 36.1521 17.4552C36.2981 17.0302 36.252 16.57 36.0237 16.1759Z" fill="#CBCBE6"/>
<path d="M31.0128 11.1532C31.9158 10.7226 32.2634 9.70926 31.7893 8.88955C31.3152 8.06983 30.1987 7.7539 29.2951 8.18377C28.3916 8.61364 28.0429 9.62664 28.5162 10.4468C28.7437 10.8411 29.1348 11.1372 29.6031 11.2697C30.0714 11.4022 30.5785 11.3603 31.0128 11.1532Z" fill="#CBCBE6"/>
<path d="M11.514 30.5811C10.6109 31.0118 10.2633 32.0251 10.7375 32.8448C11.2116 33.6646 12.3281 33.9805 13.2316 33.5506C14.1352 33.1208 14.4839 32.1077 14.0106 31.2876C13.7839 30.8925 13.3929 30.5957 12.9243 30.463C12.4556 30.3304 11.948 30.3729 11.514 30.5811Z" fill="#CBCBE6"/>
<path d="M9.79596 24.0036C9.32137 23.1841 8.20472 22.8686 7.30142 23.2989C6.39811 23.7292 6.04996 24.7423 6.52367 25.5623C6.99737 26.3822 8.11368 26.6986 9.01744 26.2691C9.45202 26.0626 9.77827 25.7078 9.9243 25.2828C10.0703 24.8578 10.0242 24.3976 9.79596 24.0036Z" fill="#CBCBE6"/>
<path d="M19.9166 23.8209C19.442 23.0014 18.3253 22.686 17.422 23.1163C16.5187 23.5466 16.1706 24.5597 16.6443 25.3796C17.118 26.1996 18.2343 26.516 19.138 26.0865C19.5726 25.88 19.8989 25.5252 20.0449 25.1002C20.1909 24.6752 20.1448 24.215 19.9166 23.8209Z" fill="#CBCBE6"/>
<path d="M15.7244 16.529C15.2498 15.7095 14.1332 15.394 13.2299 15.8243C12.3266 16.2546 11.9784 17.2677 12.4521 18.0876C12.9258 18.9076 14.0421 19.224 14.9459 18.7945C15.3805 18.588 15.7067 18.2332 15.8528 17.8082C15.9988 17.3832 15.9526 16.923 15.7244 16.529Z" fill="#CBCBE6"/>
<path d="M1.37556 30.756C0.472492 31.1866 0.124892 32.2 0.599039 33.0197C1.07319 33.8394 2.18966 34.1553 3.0932 33.7255C3.99673 33.2956 4.34543 32.2826 3.87217 31.4624C3.6446 31.0681 3.25358 30.772 2.78527 30.6395C2.31696 30.507 1.8098 30.5489 1.37556 30.756Z" fill="#CBCBE6"/>
<path d="M36.9185 3.70305C37.8216 3.27238 38.1692 2.25907 37.6951 1.43935C37.2209 0.619636 36.1044 0.303705 35.2009 0.733573C34.2974 1.16344 33.9487 2.17645 34.4219 2.99658C34.6495 3.39094 35.0405 3.687 35.5088 3.81952C35.9771 3.95204 36.4843 3.91014 36.9185 3.70305Z" fill="#CBCBE6"/>
<path d="M20.8741 11.3322C21.7831 10.907 22.1405 9.89394 21.6726 9.06884C21.2047 8.24374 20.0885 7.91881 19.1789 8.34294C18.2694 8.76706 17.9107 9.77978 18.3775 10.6054C18.6021 11.0025 18.9914 11.3022 19.4598 11.4386C19.9281 11.5749 20.4369 11.5366 20.8741 11.3322Z" fill="#CBCBE6"/>
<path d="M26.798 3.86524C27.4083 3.57355 27.7881 2.99704 27.7823 2.37109C26.7472 2.76358 25.7271 3.18448 24.7219 3.63381C25.2946 4.09314 26.1198 4.18513 26.798 3.86524Z" fill="#CBCBE6"/>
<path d="M5.79167 17.5073C5.34425 18.023 4.93262 18.5508 4.521 19.0867C4.6197 19.0593 4.71552 19.024 4.80735 18.9812C5.40984 18.6922 5.78815 18.1257 5.79167 17.5073Z" fill="#CBCBE6"/>
</svg>

