<svg width="100" height="67" viewBox="0 0 100 67" fill="none" xmlns="http://www.w3.org/2000/svg">
<path d="M65.5309 46.2788C65.4832 46.7609 66.1206 47.0378 66.6816 47.2688C66.7675 47.2055 66.8269 47.224 66.8117 47.1049L66.2022 46.7118L66.4609 46.3856C66.0557 46.1689 65.8988 45.9981 65.5309 46.2788Z" fill="#CCFFDA"/>
<path d="M89.2894 44.7846C89.0465 44.9101 88.9449 44.9461 88.8391 45.2359C89.0693 45.4816 89.6222 44.9639 89.2894 44.7846Z" fill="#CCFFDA"/>
<path d="M89.8481 45.475C89.7605 45.6715 89.5959 45.4716 89.5096 45.6689C89.6362 45.6791 89.7663 45.7115 89.8651 45.5687L89.9262 45.6081C90.0673 45.5975 90.1899 45.495 90.308 45.3595L90.4814 45.1409C90.3986 45.0901 90.3485 45.2006 90.2725 45.1714C90.1605 45.3358 90.0361 45.438 89.8918 45.4198C89.9698 45.273 90.0958 45.3724 90.1681 45.1867C89.864 44.9251 89.6071 45.3592 89.5175 45.4262C89.4548 45.6095 89.7521 45.3899 89.8481 45.475Z" fill="#CCFFDA"/>
<path d="M36.8544 16.5721L36.9759 16.6505C37.0218 16.4495 36.682 16.3069 36.4524 16.1476C36.3558 16.3228 36.9521 16.3968 36.8544 16.5721Z" fill="#CCFFDA"/>
<path fill-rule="evenodd" clip-rule="evenodd" d="M35.3596 39.3562C35.1188 39.3785 34.8685 39.4018 34.6393 39.4767L34.4163 39.4998C34.384 39.4086 34.2474 39.4355 34.1104 39.4626C34.028 39.4789 33.9455 39.4952 33.8854 39.4858C33.7287 39.4009 33.4564 39.4461 33.184 39.4914C32.7697 39.5602 32.355 39.6291 32.3463 39.2402C32.6491 39.1804 32.8624 39.0511 33.0688 38.9261C33.3787 38.7383 33.6729 38.56 34.2304 38.6405C34.3186 38.5631 34.3673 38.4577 34.4158 38.3523C34.4866 38.1989 34.5573 38.0457 34.75 37.9794C34.397 37.7846 33.9513 37.9164 33.5198 38.044C32.9751 38.2052 32.4529 38.3596 32.1681 37.8419C32.0786 37.8853 32.0655 37.9817 32.0523 38.0779C32.0429 38.1468 32.0335 38.2157 31.996 38.2649C31.7798 38.2119 31.5647 38.2046 31.6485 38.5038C31.1586 38.4146 30.6951 38.402 30.2534 38.3901C29.4146 38.3674 28.6543 38.3468 27.9403 37.8075C28.2008 36.7011 28.5842 35.6814 29.1379 34.7814C29.2478 34.7767 29.3036 34.7328 29.3597 34.6887C29.3983 34.6584 29.4372 34.6279 29.494 34.6099C29.7261 34.4111 29.923 34.1892 30.0859 33.9412C30.1313 33.9248 30.1568 33.8947 30.1822 33.8647C30.2103 33.8316 30.2382 33.7987 30.2926 33.7845C30.5888 33.7116 30.5898 33.4289 30.5892 33.1465C30.6448 33.1287 30.683 33.0986 30.7212 33.0684C30.7771 33.0243 30.8331 32.9801 30.9437 32.9745C31.0466 32.9666 31.1037 32.9269 31.1574 32.8847C31.4 32.4904 31.828 32.2283 32.4145 32.0794C32.5476 32.0596 32.6099 31.9891 32.6723 31.9183C32.7414 31.84 32.8108 31.7615 32.9766 31.7513L33.0496 31.7438L33.0412 31.6777C33.1481 31.6729 33.2193 31.6425 33.2904 31.6122C33.3797 31.5741 33.4689 31.536 33.6286 31.5485L33.7032 31.5407C34.8977 31.5902 35.8086 31.9608 36.6762 32.3802C36.7609 32.4125 36.7939 32.504 36.8267 32.5953C36.8395 32.6306 36.8522 32.666 36.8679 32.6978L36.8764 32.7645C36.9399 32.8322 37.0357 32.8635 37.1316 32.8948C37.2805 32.9435 37.4294 32.9922 37.4573 33.1771C37.5465 33.2372 37.6393 33.2932 37.732 33.3493C38.0059 33.5147 38.2797 33.68 38.4605 33.9502C38.4759 33.9993 38.513 34.0244 38.5501 34.0495C38.5836 34.0721 38.617 34.0948 38.6345 34.1351L38.7099 34.1272C38.9806 34.2499 39.0823 34.5346 39.0262 34.8363L38.9516 34.844C38.8585 34.9516 38.9199 35.1212 38.9844 35.2995C39.0558 35.4969 39.131 35.7049 39.0044 35.851L39.0724 36.3843L39.1149 36.7174L39.1233 36.7834C39.0616 37.0734 38.7277 37.1293 38.453 37.1752C38.3879 37.186 38.3261 37.1964 38.2721 37.2091C38.1325 37.2148 38.0716 37.2757 38.0106 37.3367C37.9539 37.3934 37.8971 37.4502 37.7769 37.4627C37.6254 37.443 37.5785 37.4976 37.5316 37.5522C37.503 37.5856 37.4744 37.619 37.4218 37.6355C37.4372 37.7258 37.4053 37.7839 37.3737 37.8415L37.3727 37.8434C37.4571 37.8437 37.4642 37.9306 37.4715 38.0186C37.4738 38.0473 37.4762 38.0761 37.4813 38.102C37.4233 38.1191 37.409 38.1671 37.3947 38.2152C37.3744 38.2835 37.354 38.3519 37.2082 38.3318L37.1344 38.3395L37.1429 38.4062C37.0865 38.481 36.9993 38.5337 36.9122 38.5863C36.8151 38.6449 36.718 38.7035 36.6638 38.7927C36.547 38.778 36.5195 38.8261 36.492 38.8741C36.4703 38.912 36.4486 38.9499 36.3832 38.957C36.1882 39.2792 35.789 39.3163 35.3596 39.3562ZM33.1179 36.6769C33.1061 36.6845 33.094 36.6919 33.0815 36.6991C33.094 36.6919 33.1062 36.6845 33.1179 36.6769ZM33.0815 36.6991C32.9933 36.7502 32.889 36.7917 32.774 36.8203C32.8868 36.7907 32.9933 36.7499 33.0815 36.6991ZM33.2006 36.7134C33.2657 36.7862 33.338 36.8464 33.4135 36.8956C33.3373 36.8471 33.2657 36.7862 33.2006 36.7134ZM33.4409 36.9125C33.47 36.9315 33.5003 36.9485 33.5313 36.9641C33.5006 36.9485 33.4706 36.9313 33.4409 36.9125ZM33.6436 37.0141C33.6049 36.9993 33.5677 36.9828 33.5313 36.9641C33.5678 36.9826 33.6054 36.999 33.6436 37.0141ZM33.9904 37.103L33.9903 37.103L33.9614 37.0987C33.9952 37.1044 34.0289 37.1093 34.0615 37.1123C34.0381 37.1102 34.0145 37.1066 33.9904 37.103ZM37.368 37.4728L37.3681 37.4728C37.4841 37.3509 37.6038 37.2251 37.7115 37.0721C37.6036 37.2258 37.4836 37.3518 37.3672 37.474L37.3672 37.4741L37.3671 37.4741C37.2195 37.6292 37.0778 37.778 36.9743 37.9693C37.078 37.7775 37.2201 37.6283 37.368 37.4728ZM37.5392 37.4324C37.5139 37.467 37.4878 37.5012 37.4609 37.5353C37.4878 37.5012 37.5146 37.467 37.5392 37.4324ZM37.0421 37.9982C37.0796 37.9648 37.1175 37.9284 37.155 37.8893C37.1159 37.9286 37.0795 37.9641 37.0421 37.9982ZM33.694 37.0327C33.7441 37.0494 33.7939 37.0632 33.8451 37.0755C33.7932 37.064 33.7441 37.0494 33.694 37.0327ZM34.4179 37.0725C34.4065 37.0784 34.3951 37.0844 34.3836 37.0905C34.3952 37.0842 34.4067 37.0781 34.4179 37.0725ZM34.3836 37.0905L34.367 37.0994L34.3669 37.0994L34.3669 37.0994L34.3669 37.0994L34.3669 37.0994L34.3669 37.0994L34.3669 37.0994L34.3669 37.0994C34.3509 37.108 34.3347 37.1166 34.3183 37.1251C34.3362 37.1162 34.3539 37.1066 34.3714 37.0971L34.3714 37.0971L34.3836 37.0905ZM34.2303 37.1265C34.0927 37.0231 33.9235 36.9554 33.7468 36.8969C33.9234 36.9547 34.0927 37.0231 34.2303 37.1265Z" fill="#CCFFDA"/>
<path fill-rule="evenodd" clip-rule="evenodd" d="M68.7533 58.8277C68.8031 58.6437 68.9463 58.4461 69.1253 58.2423L69.4716 57.8057L69.4112 57.7667L69.93 57.1126C70.0136 57.0421 70.1017 56.9932 70.19 56.9443C70.3281 56.8678 70.4666 56.7911 70.5891 56.6307L70.6495 56.6697C70.8346 56.4477 71.0455 56.361 71.2565 56.2743C71.2939 56.2589 71.3314 56.2436 71.3687 56.2274L71.4297 56.2668C71.4739 56.2436 71.5174 56.2169 71.5609 56.1903C71.6934 56.1091 71.8261 56.0279 71.9764 56.042C72.4143 55.8064 72.8699 55.6708 73.3393 55.6027C73.6353 55.477 73.9335 55.3423 74.2238 55.1836C74.4244 55.0293 74.6705 55.115 74.9165 55.2007C75.0905 55.2613 75.2645 55.3219 75.4222 55.2974L75.466 55.2422L75.5277 55.282C75.6444 55.1482 75.7832 55.1284 75.9443 55.2211C75.9447 55.3094 76.0205 55.387 76.0963 55.4645C76.1582 55.5278 76.22 55.591 76.2405 55.66L76.1976 55.7141C76.232 55.8287 76.3278 55.9345 76.4235 56.0402C76.5078 56.1333 76.592 56.2263 76.6342 56.3252C76.8003 56.5212 76.83 56.7366 76.8598 56.9521C76.8736 57.0519 76.8874 57.1517 76.9147 57.2496L76.8722 57.3031C76.9141 57.3333 76.8914 57.372 76.8687 57.4108C76.8606 57.4247 76.8524 57.4387 76.8473 57.4522C76.9289 57.7458 76.95 58.0477 76.8576 58.3668C76.9519 58.5291 76.8783 58.7166 76.7988 58.9053L76.7559 58.9594C76.8898 59.0505 76.8087 59.1728 76.7275 59.2953C76.6906 59.3511 76.6535 59.407 76.6368 59.46L76.5072 59.6234C76.556 59.7268 76.4354 59.8548 76.3151 59.9826C76.2427 60.0595 76.1703 60.1364 76.1351 60.2078C76.1774 60.2369 76.1544 60.2757 76.1314 60.3144C76.123 60.3286 76.1146 60.3428 76.1094 60.3565C76.1819 60.6519 75.9241 61.2497 75.5136 61.4557C75.2352 61.7752 74.9507 62.0684 74.6384 62.2112C74.4538 62.4622 74.2487 62.6079 74.0232 62.6388C73.8846 62.7602 73.7391 62.8333 73.5804 62.848C73.5205 62.9547 73.44 62.9535 73.3597 62.9524C73.2969 62.9515 73.2342 62.9506 73.1817 63.0013C72.7038 63.2171 72.2197 63.3885 71.7147 63.4578C71.629 63.583 71.5172 63.5727 71.4054 63.5625C71.3899 63.5611 71.3743 63.5597 71.3588 63.5586L71.2983 63.5196C71.1963 63.5943 71.0832 63.6107 70.9702 63.627C70.8748 63.6408 70.7794 63.6546 70.6909 63.7035C70.5028 63.924 70.2425 63.7514 69.9819 63.5786C69.9571 63.5622 69.9323 63.5457 69.9075 63.5296C69.9199 63.4145 69.8466 63.313 69.691 63.223L69.7334 63.1695C69.611 63.1113 69.5093 63.0694 69.418 63.0318C69.1733 62.931 69.0039 62.8613 68.7144 62.5931L68.7568 62.5396C68.6801 62.503 68.6586 62.4573 68.6791 62.406L68.4965 62.2882C68.5345 62.1811 68.4673 62.089 68.4 61.9967C68.3612 61.9436 68.3224 61.8904 68.3036 61.8342C68.2848 61.7789 68.2655 61.7244 68.2466 61.6707C68.0298 61.0564 67.8466 60.5374 68.5925 59.9605C68.5898 59.9019 68.607 59.8405 68.6242 59.7792C68.6541 59.6727 68.6839 59.5664 68.6089 59.4754C68.6132 59.4287 68.6084 59.3833 68.6036 59.338C68.5899 59.2091 68.5763 59.0806 68.7717 58.9221C68.8189 58.882 68.7886 58.8547 68.7533 58.8277ZM70.2623 60.2948C70.1969 60.3649 70.2918 60.4115 70.3871 60.4583C70.443 60.4857 70.499 60.5132 70.5231 60.5456C70.4345 60.5973 70.3378 60.6042 70.2412 60.6112C70.1446 60.6181 70.0479 60.6251 69.9593 60.6768L69.916 60.7314L69.7938 60.6526C69.5397 60.4494 69.6476 60.194 69.7562 59.9369L69.7562 59.9369C69.7711 59.9017 69.786 59.8665 69.7999 59.8313C69.8537 59.8769 69.9281 59.9194 70.0025 59.9619L70.0025 59.9619C70.1747 60.0604 70.3467 60.1587 70.2623 60.2948ZM69.1524 60.0401C69.0839 59.8577 69.0152 59.6749 68.9897 59.4852C69.0159 59.68 69.0872 59.8682 69.158 60.055L69.1592 60.0584L69.1524 60.0401Z" fill="#CCFFDA"/>
<path fill-rule="evenodd" clip-rule="evenodd" d="M6.67583 31.6919C6.72554 31.508 6.8688 31.3104 7.04777 31.1066L7.39409 30.6699L7.33364 30.6309L7.85245 29.9768C7.93612 29.9063 8.02423 29.8575 8.1125 29.8086C8.2506 29.7321 8.38908 29.6554 8.51159 29.495L8.57203 29.534C8.75706 29.312 8.968 29.2253 9.17899 29.1386C9.21643 29.1232 9.25386 29.1078 9.29116 29.0917L9.35223 29.1311C9.39636 29.1078 9.43988 29.0812 9.48341 29.0545C9.61593 28.9734 9.74858 28.8922 9.89888 28.9062C10.3368 28.6706 10.7924 28.5351 11.2618 28.467C11.5578 28.3412 11.856 28.2065 12.1463 28.0479C12.3469 27.8936 12.593 27.9793 12.839 28.065C13.013 28.1256 13.187 28.1862 13.3447 28.1617L13.3885 28.1064L13.4502 28.1462C13.5669 28.0124 13.7057 27.9926 13.8668 28.0854C13.8671 28.1737 13.943 28.2513 14.0188 28.3288C14.0807 28.3921 14.1425 28.4553 14.163 28.5243L14.1201 28.5783C14.1545 28.693 14.2503 28.7987 14.346 28.9044C14.4303 28.9975 14.5145 29.0906 14.5567 29.1895C14.7228 29.3854 14.7525 29.6008 14.7823 29.8164C14.7961 29.9162 14.8099 30.016 14.8372 30.1139L14.7947 30.1674C14.8366 30.1975 14.8139 30.2363 14.7912 30.275C14.7831 30.289 14.7749 30.3029 14.7697 30.3165C14.8514 30.6101 14.8725 30.912 14.7801 31.231C14.8744 31.3934 14.8008 31.5808 14.7212 31.7696L14.6783 31.8237C14.8122 31.9148 14.7312 32.037 14.65 32.1596C14.613 32.2154 14.576 32.2713 14.5592 32.3243L14.4297 32.4877C14.4785 32.5911 14.3579 32.7191 14.2376 32.8469C14.1652 32.9238 14.0928 33.0007 14.0575 33.072C14.0999 33.1012 14.0769 33.1399 14.0539 33.1787C14.0455 33.1928 14.0371 33.207 14.0319 33.2207C14.1044 33.5161 13.8466 34.114 13.4361 34.3199C13.1577 34.6395 12.8732 34.9327 12.5609 35.0755C12.3762 35.3264 12.1712 35.4721 11.9457 35.5031C11.8071 35.6245 11.6616 35.6976 11.5028 35.7122C11.443 35.819 11.3625 35.8178 11.2822 35.8167C11.2194 35.8158 11.1567 35.8148 11.1042 35.8656C10.6263 36.0814 10.1422 36.2528 9.63722 36.322C9.55144 36.4472 9.43971 36.437 9.32792 36.4268C9.31234 36.4254 9.29676 36.4239 9.28124 36.4229L9.2208 36.3839C9.11883 36.4586 9.00571 36.4749 8.89268 36.4913C8.79724 36.5051 8.70187 36.5189 8.61334 36.5678C8.4253 36.7883 8.16501 36.6157 7.90442 36.4429C7.8796 36.4264 7.85477 36.41 7.83001 36.3938C7.8424 36.2788 7.76905 36.1773 7.61349 36.0872L7.65593 36.0337C7.53353 35.9756 7.43176 35.9337 7.34047 35.8961C7.09574 35.7953 6.92638 35.7256 6.63689 35.4574L6.67933 35.4038C6.60257 35.3672 6.58111 35.3216 6.60161 35.2702L6.41901 35.1525C6.45697 35.0454 6.38976 34.9532 6.32245 34.861C6.28368 34.8078 6.24487 34.7546 6.22612 34.6985C6.20724 34.6432 6.18801 34.5887 6.16905 34.5349C5.95228 33.9206 5.76913 33.4016 6.51497 32.8247C6.51229 32.7661 6.5295 32.7048 6.54668 32.6435C6.57656 32.5369 6.60637 32.4306 6.53138 32.3396C6.53566 32.2929 6.53085 32.2476 6.52604 32.2023C6.51238 32.0734 6.49875 31.9449 6.6942 31.7864C6.7414 31.7463 6.71111 31.719 6.67583 31.6919ZM8.18484 33.159C8.11948 33.2292 8.21434 33.2758 8.30967 33.3226C8.36553 33.35 8.42154 33.3775 8.4456 33.4098C8.35699 33.4615 8.26036 33.4685 8.16373 33.4754C8.0671 33.4824 7.97047 33.4893 7.88186 33.541L7.83852 33.5957L7.71636 33.5169C7.46226 33.3136 7.57013 33.0583 7.67874 32.8012L7.67874 32.8012C7.69361 32.766 7.7085 32.7307 7.72247 32.6956C7.77624 32.7412 7.85063 32.7837 7.92499 32.8262L7.925 32.8262C8.09719 32.9246 8.26925 33.023 8.18484 33.159ZM7.07495 32.9044C7.00644 32.722 6.93775 32.5391 6.91227 32.3495C6.93844 32.5443 7.00974 32.7325 7.08051 32.9192L7.08181 32.9227L7.07495 32.9044Z" fill="#CCFFDA"/>
<path fill-rule="evenodd" clip-rule="evenodd" d="M43.5233 48.8204L43.7395 48.5477C43.6816 48.3795 43.661 48.2053 43.6951 48.0242C43.8395 47.695 44.0434 47.6763 44.2475 47.6576C44.3245 47.6506 44.4016 47.6435 44.4755 47.6197C44.6489 47.6517 44.8062 47.5936 44.9638 47.5355C45.0235 47.5135 45.0832 47.4914 45.1439 47.4743L45.205 47.5137C45.4934 47.3654 45.8058 47.3409 46.1182 47.3164C46.2102 47.3092 46.3023 47.302 46.3937 47.2916L46.5159 47.3704C47.0011 47.1955 47.5336 47.274 48.0656 47.3524C48.1022 47.3578 48.1387 47.3632 48.1753 47.3685C48.2413 47.3745 48.3044 47.364 48.3675 47.3536C48.4777 47.3353 48.5878 47.317 48.7134 47.386C48.9831 47.3904 49.2581 47.4353 49.5576 47.6009C49.7031 47.665 49.8407 47.6888 49.9783 47.7125C50.1911 47.7493 50.4038 47.786 50.6452 47.972C51.2405 48.1357 51.7714 48.657 52.0218 49.0251C52.0472 49.152 52.1226 49.272 52.1981 49.3922C52.2708 49.5078 52.3435 49.6236 52.3717 49.7456C52.5026 49.9831 52.6254 50.2224 52.513 50.495C52.4366 50.5877 52.4464 50.6663 52.504 50.7379C52.5449 50.9252 52.4701 51.1299 52.2991 51.3466C52.1568 51.8305 51.5473 52.2824 51.1818 52.5226C50.964 52.7899 50.7191 52.9108 50.4612 52.9656C50.3407 53.0798 50.2134 53.1603 50.0634 53.1204L49.9767 53.2297C49.8679 53.2122 49.7662 53.2311 49.6645 53.25C49.4903 53.2825 49.3163 53.3148 49.1075 53.1639C48.8631 53.0708 48.8405 52.9452 49.0373 52.7881C49.1182 52.7431 49.1997 52.707 49.2885 52.7041L49.3323 52.6489C49.3856 52.6347 49.436 52.6048 49.4864 52.5749C49.5641 52.5288 49.6419 52.4826 49.7301 52.4941L49.9031 52.2761C50.0506 52.1983 50.2003 52.1302 50.3504 52.062C50.4476 52.0178 50.5449 51.9735 50.6419 51.9265L50.7024 51.9655C50.717 51.9217 50.7663 51.8725 50.8156 51.8234C50.8984 51.7408 50.9814 51.658 50.9011 51.5997C50.8364 51.5443 50.7828 51.5415 50.7356 51.5756L50.6745 51.5362C50.5923 51.5172 50.53 51.6034 50.4678 51.6894C50.4027 51.7795 50.3376 51.8695 50.2498 51.8388C50.0989 51.9867 49.9302 52.0406 49.7461 52.0096C49.5309 52.0008 49.3225 52.0307 49.1206 52.101L49.0777 52.1551C48.6512 52.3472 48.1987 52.4134 47.7237 52.3539C47.46 52.463 47.158 52.3661 46.8556 52.2691C46.8345 52.2624 46.8134 52.2556 46.7924 52.2489C46.664 52.2079 46.5427 52.2036 46.4215 52.1993C46.2558 52.1934 46.0901 52.1876 45.9064 52.088L45.846 52.049C45.8191 52.1022 45.7814 52.0856 45.7405 52.0644L44.7053 51.3967L44.7491 51.3415L44.6868 51.3013C44.5217 51.2165 44.474 51.1143 44.4263 51.0121C44.3827 50.9189 44.3391 50.8256 44.2064 50.7454L44.2502 50.6902C44.0373 50.5919 43.9933 50.4693 43.9492 50.3463C43.9331 50.3013 43.9169 50.2563 43.8925 50.2124C43.5975 49.7744 43.3749 49.3227 43.5233 48.8204ZM51.1836 50.5463C51.1451 50.3302 50.9945 50.131 50.8439 49.932C50.7317 49.7836 50.6195 49.6353 50.554 49.4802L50.5973 49.4256C50.5653 49.3886 50.5019 49.3562 50.4384 49.3238C50.3069 49.2565 50.1749 49.189 50.3199 49.0806L51.1725 49.6304L51.2329 49.6694C51.2224 49.6927 51.2246 49.7139 51.2268 49.7349C51.2297 49.762 51.2325 49.7888 51.2081 49.8195C51.3188 49.9148 51.3877 50.0163 51.4563 50.1174L51.4875 50.1632C51.497 50.2298 51.4711 50.3012 51.4454 50.3723C51.4159 50.4538 51.3865 50.535 51.4105 50.6083C51.3649 50.6522 51.305 50.6163 51.2447 50.5801C51.2242 50.5679 51.2037 50.5556 51.1836 50.5463ZM47.9002 48.1798C48.1619 48.3195 47.9909 48.3545 47.8111 48.3914C47.7152 48.4111 47.6167 48.4313 47.5801 48.4682C47.4474 48.5289 47.3081 48.5492 47.1635 48.5291L47.0773 48.6378C47.0516 48.6287 47.0285 48.6305 47.0056 48.6324C46.9755 48.6347 46.946 48.6371 46.9119 48.6146C46.7541 48.6281 46.6066 48.7025 46.4691 48.8238L45.9498 49.4785L46.0707 49.5564C46.012 49.6342 46.0051 49.7041 45.9983 49.7739C45.9892 49.8672 45.9802 49.9603 45.847 50.0713L45.5429 49.8752C45.521 49.7389 45.4525 49.6095 45.384 49.4801C45.3024 49.326 45.2208 49.172 45.2182 49.0066C45.3914 48.8227 45.388 48.6647 45.3847 48.507C45.3819 48.3764 45.3792 48.246 45.4767 48.1011C45.6162 48.0551 45.7606 48.0356 45.9053 48.0161C46.0563 47.9957 46.2075 47.9753 46.3532 47.9247C46.5301 47.9429 46.7095 47.9743 46.8889 48.0057C47.1894 48.0583 47.49 48.1109 47.7787 48.1014L47.9002 48.1798Z" fill="#CCFFDA"/>
<path fill-rule="evenodd" clip-rule="evenodd" d="M23.9075 58.2629C23.7985 58.2083 23.6898 58.1538 23.7452 58.0755C23.6233 57.9964 23.5534 57.9103 23.4835 57.8241C23.4136 57.7379 23.3437 57.6518 23.2218 57.5727C23.2211 57.4842 23.1453 57.4069 23.0696 57.3297C23.0078 57.2666 22.9459 57.2035 22.9251 57.1344C22.8642 57.0661 22.8382 56.9924 22.8122 56.9187C22.795 56.8699 22.7778 56.821 22.7504 56.7738C22.223 56.111 21.8514 55.4265 22.03 54.6605L22.1163 54.5518C22.1048 54.5025 22.1322 54.4472 22.1597 54.3919C22.2012 54.3085 22.2427 54.2249 22.1511 54.1611L22.3235 53.9437L22.2625 53.9043C22.3097 53.7656 22.3294 53.6311 22.3491 53.4965C22.392 53.2039 22.4348 52.9114 22.7611 52.5772C22.8197 52.362 23.0168 52.1264 23.2137 51.8909C23.3075 51.7787 23.4014 51.6665 23.4802 51.5566L23.5244 51.5008L23.5842 51.5393C23.649 51.4862 23.707 51.3987 23.7648 51.3114C23.8595 51.1686 23.9539 51.0261 24.0776 51.0349L24.2077 50.871L24.3372 50.7076C24.4485 50.5257 24.5951 50.5306 24.7422 50.5356C24.7752 50.5367 24.8083 50.5378 24.841 50.5368C24.907 50.416 24.9907 50.3874 25.0745 50.3587C25.1583 50.33 25.2422 50.3013 25.3086 50.1801L25.369 50.2191C25.685 49.9092 26.0197 49.6922 26.383 49.6366C26.4186 49.6595 26.4488 49.6572 26.479 49.6549C26.5018 49.6532 26.5246 49.6514 26.5496 49.6605C26.7577 49.6286 26.9659 49.5977 27.1744 49.5687C27.2127 49.5908 27.2528 49.6081 27.278 49.5546L27.3213 49.5C27.6968 49.4048 28.0786 49.349 28.4672 49.332C28.6675 49.2565 28.8747 49.2171 29.1114 49.3345C29.2888 49.3328 29.4757 49.3784 29.6673 49.4461C29.7113 49.49 29.7419 49.4624 29.7719 49.4318C29.9603 49.3907 30.1711 49.4681 30.3897 49.5816C30.487 49.5342 30.6001 49.565 30.7192 49.6306L30.763 49.5754L31.4336 50.0079L31.4947 50.0473L31.4509 50.1025L31.5113 50.1415C31.725 50.3769 32.0728 50.5936 32.4201 50.8099L32.4444 50.8251C32.4257 50.8816 32.4914 50.9258 32.5571 50.9698C32.629 51.018 32.7008 51.0662 32.6618 51.1305C32.6914 51.1746 32.7233 51.2183 32.7552 51.2619C32.8507 51.3924 32.9458 51.5225 32.9773 51.6627L33.0377 51.7017C33.1957 51.7924 33.2677 51.8931 33.2558 52.0076C33.4581 52.2835 33.6279 52.5642 33.6849 52.8609L33.8071 52.9397C33.8216 53.2597 33.881 53.5716 33.9831 53.8793C33.8623 53.9655 33.8785 54.032 33.8947 54.0984C33.9088 54.1563 33.9228 54.2141 33.8461 54.2849C33.903 54.6445 33.7897 55.0282 33.6762 55.4125C33.6557 55.4819 33.6351 55.5513 33.6156 55.6206C33.5584 55.7016 33.542 55.7762 33.5257 55.8509C33.5057 55.942 33.4857 56.0332 33.3915 56.1361C33.3455 56.2047 33.3131 56.2718 33.2805 56.3391C33.2213 56.4616 33.1617 56.5848 33.0198 56.7198C32.9922 56.9701 32.8037 57.1063 32.6058 57.2493C32.4651 57.351 32.3196 57.4562 32.2238 57.6082C31.9297 57.7225 31.6763 58.0537 31.4227 58.3851C31.3324 58.5032 31.242 58.6212 31.1499 58.7295C30.9212 58.8353 30.7087 59.0269 30.4963 59.2183C30.3883 59.3155 30.2804 59.4128 30.1705 59.4987C30.0696 59.534 29.9719 59.5865 29.8743 59.639C29.7777 59.691 29.6812 59.743 29.5816 59.7781C29.4025 59.9723 29.2069 60.0673 28.9908 60.0561C28.9554 60.0658 28.9193 60.0718 28.8833 60.0778C28.7808 60.0949 28.6786 60.1119 28.5921 60.212C28.512 60.1639 28.4479 60.2032 28.3838 60.2425C28.3196 60.2818 28.2555 60.3211 28.1755 60.2729C27.9397 60.4453 27.6736 60.4509 27.3849 60.3396L27.3412 60.3948C27.2564 60.3629 27.1821 60.3841 27.1077 60.4054C27.0131 60.4324 26.9184 60.4595 26.8024 60.3769C26.5648 60.3467 26.3186 60.2679 26.0633 60.1472L26.02 60.2018L25.5326 59.8875C25.3224 59.7768 25.1863 59.6551 25.0502 59.5334C24.9083 59.4064 24.7663 59.2795 24.5402 59.1648C24.5546 59.1326 24.5358 59.1054 24.5171 59.0783C24.4954 59.047 24.4738 59.0158 24.5036 58.9769C24.4188 58.9203 24.3867 58.856 24.3547 58.7917C24.3121 58.7063 24.2694 58.6208 24.103 58.5532C24.1286 58.4992 24.1687 58.5164 24.2079 58.5374C24.2388 58.4847 24.1803 58.4448 24.1218 58.4048C24.1027 58.3917 24.0835 58.3787 24.0675 58.3651C24.0368 58.3277 23.9721 58.2953 23.9075 58.2629ZM28.7594 50.5909C28.8556 50.6344 28.9448 50.6416 29.034 50.6487C29.1438 50.6576 29.2536 50.6664 29.3765 50.7428L29.986 51.1359L30.4129 51.4113C30.3071 51.5599 30.4637 51.6716 30.6192 51.7825C30.65 51.8045 30.6807 51.8264 30.7094 51.8486L31.0148 52.0456L30.971 52.1008C30.8026 52.1652 30.4719 52.2754 30.156 52.316C29.8537 52.1293 29.6989 51.9213 29.544 51.7133C29.3755 51.4868 29.2069 51.2603 28.848 51.0611C28.788 51.0902 28.7218 51.0861 28.6556 51.082C28.5413 51.0748 28.427 51.0677 28.3443 51.2319C28.1891 51.4493 28.0283 51.6339 27.8505 51.7369C27.6598 51.6358 27.5051 51.732 27.3509 51.8279C27.3293 51.8414 27.3078 51.8548 27.2861 51.8677C27.2519 51.9178 27.2121 51.9351 27.1723 51.9525C27.13 51.971 27.0877 51.9894 27.0523 52.0473C26.9995 52.0501 26.9461 52.049 26.8926 52.0479L26.8926 52.0479C26.6598 52.0431 26.4266 52.0383 26.2543 52.3561C26.1769 52.3743 26.1067 52.4299 26.0365 52.4855C25.9514 52.553 25.8662 52.6204 25.7683 52.6209C25.5445 52.5221 25.3811 52.7423 25.2175 52.9631C25.1676 53.0303 25.1177 53.0976 25.0661 53.1559C24.9256 53.1668 24.8019 53.2695 24.6849 53.4048C24.6744 53.4423 24.6315 53.4843 24.5886 53.5263C24.5155 53.5978 24.4426 53.6692 24.5299 53.7179C24.4946 53.7388 24.4646 53.7886 24.4345 53.8385C24.383 53.9242 24.3313 54.0101 24.2519 53.9508C24.1624 53.9 24.0727 53.8481 24.1131 53.7778L24.1998 53.6685C24.1084 53.5354 24.2481 53.366 24.3868 53.1979C24.414 53.165 24.4411 53.1321 24.4664 53.0996L24.5102 53.0443L24.5713 53.0837L25.0897 52.4302C25.1206 52.3985 25.1516 52.3703 25.195 52.4138C25.2688 52.3144 25.3492 52.25 25.4298 52.1854C25.5351 52.101 25.6406 52.0164 25.7315 51.8537C25.98 51.749 26.4444 51.2956 26.5019 51.114C26.5398 51.0668 26.587 51.0684 26.6343 51.07C26.6948 51.0721 26.7555 51.0742 26.7968 50.9738C26.8649 50.9583 26.9336 50.9459 27.0025 50.9335C27.2267 50.893 27.4518 50.8524 27.6569 50.7042C27.9754 50.6979 28.2888 50.6531 28.5941 50.5677C28.6575 50.6224 28.7117 50.6255 28.7594 50.5909ZM27.6873 56.663C27.7303 56.6632 27.7733 56.6635 27.8159 56.6609C27.9219 56.7035 28.0096 56.6494 28.0973 56.5953C28.1852 56.5411 28.2731 56.4868 28.3797 56.5297C28.5165 56.3877 28.668 56.3247 28.8196 56.2617C28.9987 56.1873 29.1778 56.1128 29.3326 55.9078L29.8085 55.3078C29.7274 55.2511 29.6552 55.2476 29.583 55.2441C29.5004 55.1847 29.4463 55.277 29.3923 55.3692C29.3381 55.4616 29.2841 55.5538 29.2014 55.4936L29.1984 55.4944C28.9777 55.5542 28.7591 55.6134 28.5679 55.8267C28.5313 55.8523 28.4952 55.8806 28.459 55.909C28.3401 56.0023 28.2208 56.0958 28.0824 56.091C27.9719 56.1821 27.8469 56.1903 27.721 56.1985L27.721 56.1985C27.6881 56.2007 27.6552 56.2029 27.6224 56.2065C27.5878 56.2234 27.553 56.2393 27.5181 56.2552L27.5181 56.2552C27.3229 56.3445 27.1277 56.4338 26.9634 56.6893C27.067 56.7613 27.163 56.7991 27.2509 56.7913C27.3797 56.6611 27.5332 56.662 27.6873 56.663ZM23.2661 52.2559C23.1936 52.4703 23.1213 52.6846 22.9521 52.9136C23.1214 52.6855 23.1935 52.4715 23.2656 52.2575C23.2821 52.2084 23.2987 52.1593 23.3164 52.11C23.2989 52.1587 23.2825 52.2073 23.2661 52.2559L23.2661 52.2559ZM22.9451 52.9273C22.9502 52.8566 22.9588 52.7864 22.9722 52.7185C22.9588 52.7864 22.9506 52.856 22.9451 52.9273ZM24.4609 57.8099C24.5039 57.866 24.5445 57.9215 24.5853 57.9779C24.545 57.9209 24.5039 57.866 24.4609 57.8099ZM24.1616 57.4366C24.2603 57.5571 24.3586 57.677 24.4527 57.7995C24.358 57.6771 24.2596 57.5567 24.1608 57.4359L24.1606 57.4356C24.1137 57.3783 24.0668 57.3209 24.0202 57.2632C24.0671 57.3213 24.1144 57.379 24.1616 57.4366ZM24.501 56.0872C24.6055 56.1228 24.6262 56.1706 24.6463 56.218C24.6262 56.1706 24.605 56.1234 24.501 56.0872ZM24.3189 55.4599L24.3759 55.4764L24.2513 55.4404L24.2512 55.4404L24.2508 55.4403C24.1865 55.4216 24.1172 55.4015 24.0402 55.3795C24.1452 55.4095 24.2355 55.4357 24.3189 55.4599ZM25.422 56.8757C25.2633 56.991 25.0908 57.0339 24.9051 57.0122C25.0907 57.0329 25.2633 56.991 25.422 56.8757ZM24.5693 55.5306C24.533 55.5218 24.4959 55.5116 24.4575 55.5006C24.4971 55.5125 24.533 55.5218 24.5693 55.5306ZM24.6348 55.5487C24.659 55.5555 24.6833 55.5614 24.7065 55.5671L24.7317 55.5733C24.7012 55.5657 24.6683 55.5574 24.6348 55.5487ZM25.3056 55.6209C25.215 55.6261 25.1333 55.626 25.0551 55.6203C25.134 55.6264 25.215 55.6261 25.3056 55.6209ZM25.1085 55.0789C25.0754 55.1315 25.0595 55.1807 25.0555 55.2306C25.0586 55.1818 25.0754 55.1315 25.1085 55.0789ZM25.4675 56.8741C25.6684 56.9952 25.9277 56.972 26.1724 56.9501L26.1725 56.9501C26.3146 56.9374 26.4517 56.9251 26.5696 56.9418C26.4516 56.9251 26.3144 56.9373 26.1723 56.95C25.9277 56.9718 25.6686 56.9949 25.4675 56.8741ZM25.4237 58.5324C25.3201 58.4488 25.206 58.3567 25.0839 58.4854C25.206 58.3576 25.3194 58.449 25.4224 58.5321C25.4683 58.5691 25.5121 58.6045 25.5538 58.6181C25.5126 58.6041 25.4692 58.5691 25.4237 58.5324Z" fill="#CCFFDA"/>
<path fill-rule="evenodd" clip-rule="evenodd" d="M5.77532 47.3928L2.30646 51.7665L6.19899 54.277L10.6665 57.1586L16.6941 49.5588L10.7489 45.7243L8.33412 44.1668L6.73002 46.1886L6.72738 46.1918L6.64114 46.3006L6.64107 46.3012L6.0357 47.0645L6.03519 47.0645L5.77511 47.3925L5.77532 47.3928ZM12.0795 48.7377C12.3585 49.1947 12.3189 49.6992 11.9887 50.2453C11.9561 50.2328 11.9249 50.2291 11.8936 50.2254C11.8338 50.2184 11.7736 50.2114 11.7022 50.1422L11.5807 50.0638C11.5161 49.9804 11.4378 49.8991 11.3596 49.8178L11.3596 49.8178L11.3596 49.8178L11.3596 49.8178L11.3596 49.8178L11.3595 49.8178L11.3595 49.8178L11.3595 49.8178L11.3595 49.8178L11.3595 49.8178L11.3595 49.8178L11.3595 49.8178C11.1667 49.6175 10.9741 49.4174 10.9867 49.1867C10.8516 48.986 10.9146 48.704 11.1937 48.5777C11.4572 48.4637 11.7365 48.4329 12.0795 48.7377ZM5.7297 48.1805C5.89594 47.972 6.05475 47.7727 5.96158 47.5247C6.05507 47.7729 5.89617 47.9719 5.72982 48.1803C5.59363 48.3509 5.45246 48.5277 5.4407 48.7428C5.45274 48.528 5.5937 48.3511 5.7297 48.1805ZM5.67766 50.406C5.66934 50.4199 5.66107 50.4337 5.65589 50.4469C5.55454 50.5605 5.43422 50.6271 5.32385 50.6883C5.13275 50.7941 4.97144 50.8834 4.98995 51.1714C5.04585 51.2701 5.13796 51.3634 5.23005 51.4568C5.47062 51.7007 5.7111 51.9444 5.30569 52.2828C5.32348 52.3045 5.34202 52.34 5.36302 52.3803C5.42931 52.5074 5.52012 52.6815 5.68925 52.6128L5.75032 52.6522C6.09013 52.9695 6.30659 53.0713 6.67246 52.9992L6.79462 53.078L6.83796 53.0233L6.89904 53.0627C6.98835 53.1841 7.04945 53.155 7.11055 53.1258C7.16406 53.1004 7.21757 53.0749 7.29003 53.1505C7.31503 53.119 7.34423 53.1126 7.3734 53.1062C7.39533 53.1014 7.41724 53.0966 7.43735 53.0812L7.25348 52.9626L7.25381 52.9302C7.2575 52.5714 7.26121 52.2118 6.99882 51.8905L6.93711 51.8507C6.79333 51.5769 6.76906 51.2406 6.74509 50.9084C6.71163 50.445 6.67877 49.9897 6.32264 49.7239C6.24082 49.6007 6.19363 49.6612 6.14643 49.7217C6.10766 49.7714 6.06888 49.8211 6.01091 49.7689C5.83424 49.9553 5.7387 50.1303 5.68169 50.2992C5.72422 50.3285 5.70081 50.3675 5.67766 50.406ZM7.03353 51.4998C7.03193 51.4024 7.04012 51.3036 7.05157 51.2042C7.04012 51.3036 7.03256 51.4028 7.03353 51.4998ZM9.19336 53.7783C9.17045 53.8169 9.13667 53.857 9.09092 53.899C9.13667 53.857 9.16982 53.8165 9.19336 53.7783ZM8.62013 53.1187C8.64739 53.1328 8.67138 53.1474 8.69747 53.1643C8.67138 53.1474 8.64612 53.132 8.62013 53.1187ZM8.6006 53.1069C8.57035 53.0917 8.53803 53.0803 8.50535 53.073C8.53803 53.0803 8.56908 53.0909 8.6006 53.1069ZM9.15876 53.4617C9.08857 53.543 8.99778 53.5163 8.90741 53.4898C8.86077 53.476 8.81423 53.4624 8.7707 53.4636C8.81449 53.462 8.8613 53.4758 8.90823 53.4895C8.99812 53.5159 9.08842 53.5424 9.15876 53.4617Z" fill="#CCFFDA"/>
<path fill-rule="evenodd" clip-rule="evenodd" d="M63.1001 42.2567C63.1193 42.2345 63.1386 42.2122 63.1539 42.1906L63.0935 42.1516C63.1292 42.0792 63.1578 42.0078 63.1864 41.9365C63.2606 41.7514 63.3347 41.5665 63.5344 41.3629C63.6467 41.3116 63.747 41.1967 63.8474 41.0818C63.9815 40.9283 64.1157 40.7747 64.2786 40.7725C64.3851 40.8023 64.4629 40.6808 64.5403 40.5598C64.5865 40.4876 64.6325 40.4157 64.6845 40.3759C64.7534 40.2533 64.8397 40.2234 64.9258 40.1936C64.974 40.1769 65.0222 40.1602 65.0674 40.1272L65.1278 40.1662C65.2015 40.1364 65.2732 40.0958 65.3449 40.0553C65.5156 39.9588 65.6861 39.8624 65.8833 39.9109C65.915 39.9039 65.9468 39.8971 65.9785 39.8904C66.101 39.8645 66.2235 39.8385 66.3428 39.7959C66.5094 39.6522 66.6993 39.6351 66.8888 39.6181C66.9798 39.6099 67.0706 39.6017 67.1587 39.5796C67.2 39.5106 67.25 39.4912 67.3067 39.5106C67.6358 39.1685 68.0528 39.2906 68.4698 39.4126C68.5254 39.4289 68.5809 39.4451 68.6362 39.4603L68.6973 39.4997C68.7924 39.5827 68.8678 39.5595 68.9434 39.5362C69.0029 39.5179 69.0624 39.4996 69.1316 39.5329C69.2065 39.529 69.2798 39.5167 69.3532 39.5044C69.5218 39.4763 69.6906 39.448 69.8788 39.5208L69.9222 39.4662L70.6538 39.9381L70.5242 40.1015C70.4832 40.1714 70.5726 40.2222 70.6627 40.2734L70.6628 40.2735L70.9059 40.4302C70.959 40.3518 71.0399 40.4188 71.1206 40.4855C71.1674 40.5243 71.2141 40.5629 71.2552 40.573L71.4983 40.7297C71.4759 40.761 71.4766 40.7889 71.4773 40.8168C71.4781 40.8529 71.479 40.889 71.4298 40.9325L71.613 41.0507C71.8305 40.9414 72.1829 41.2161 72.0576 41.4201C72.0092 41.4594 72.0407 41.4875 72.0741 41.5133L72.0734 41.5172C72.0621 41.5825 72.051 41.6468 72.11 41.7008C72.3238 41.8355 72.3252 42.0018 72.3266 42.1674C72.3271 42.2263 72.3277 42.2852 72.3377 42.3425C72.5487 42.4624 72.5462 42.6135 72.5438 42.7649C72.5426 42.8395 72.5414 42.9141 72.5656 42.9851C72.4483 43.0722 72.4622 43.1397 72.476 43.2071C72.4846 43.2485 72.4931 43.2898 72.4713 43.3356C72.6364 43.5058 72.6706 43.6931 72.5792 43.8992C72.4978 44.0394 72.4545 44.1741 72.5451 44.2902C72.5544 44.317 72.5657 44.3434 72.5771 44.3699C72.6241 44.4797 72.6713 44.5897 72.5725 44.7201C72.7116 44.9242 72.5789 45.1691 72.3834 45.4216L72.3396 45.4769C72.3833 45.5063 72.3598 45.5458 72.3363 45.5852C72.3281 45.599 72.32 45.6127 72.3147 45.626L72.0984 45.8987L72.055 45.9533C70.978 47.15 69.8116 47.8761 68.3844 47.2129C68.5593 46.7475 69.163 46.5405 69.6078 46.5993C69.6568 46.5229 69.7002 46.4473 69.7436 46.3719C69.8515 46.1842 69.9592 45.9969 70.1524 45.7975L70.3257 45.5789L70.3686 45.5248L70.2452 45.4452C70.1658 45.4895 70.0836 45.5277 69.9958 45.5304L69.9087 45.6403C69.8574 45.6176 69.8116 45.6252 69.766 45.6327C69.7249 45.6395 69.684 45.6463 69.6392 45.6308C69.4899 45.7289 69.3253 45.7429 69.1609 45.7569C69.0092 45.7698 68.8577 45.7827 68.7187 45.8615C68.5692 46.1093 68.3913 46.2088 68.2079 46.2738L68.1646 46.3285C68.104 46.3375 68.0469 46.3633 67.9899 46.389C67.899 46.43 67.8082 46.4709 67.7035 46.4442C67.5845 46.3404 67.4951 46.3941 67.4056 46.4479C67.3669 46.4712 67.3281 46.4945 67.2869 46.505C67.1984 46.4404 67.1187 46.3742 67.0415 46.3101C66.8382 46.1414 66.6528 45.9875 66.3727 45.9154C66.4042 45.5252 66.4172 45.1378 66.0565 44.8045C65.9118 44.7192 65.8707 44.8222 65.8309 44.9222C65.786 45.035 65.7427 45.1439 65.5536 44.9741C64.8964 46.0053 63.5088 45.8693 62.8944 45.0737C62.9501 45.0466 63.0061 45.0262 63.059 45.0069C63.2415 44.9404 63.386 44.8877 63.3445 44.6214L63.2841 44.5824L63.1015 44.4646C62.9958 44.3497 62.9743 44.2227 62.9529 44.0958C62.9372 44.0031 62.9215 43.9104 62.8731 43.8226C62.8577 43.8098 62.8396 43.7973 62.8213 43.7848C62.7625 43.7446 62.703 43.7038 62.7339 43.6501C62.6988 43.6241 62.6677 43.5954 62.7157 43.5567C62.5329 43.4696 62.5814 43.3494 62.6299 43.2293C62.6571 43.1618 62.6844 43.0943 62.6706 43.0328C62.6208 42.9294 62.7408 42.8019 62.8608 42.6743C62.9336 42.597 63.0065 42.5196 63.0414 42.4476C62.9792 42.3963 63.0395 42.3266 63.1001 42.2567Z" fill="#CCFFDA"/>
<path fill-rule="evenodd" clip-rule="evenodd" d="M26.1302 20.5815C26.0978 20.5049 26.0655 20.4285 26.0714 20.3465C26.1144 20.2986 26.1559 20.2421 26.1974 20.1856C26.2976 20.049 26.3982 19.912 26.5221 19.8946C26.5705 19.8862 26.6185 19.876 26.6666 19.8658C26.8412 19.8286 27.016 19.7914 27.2076 19.8428C27.2176 19.8196 27.2271 19.7965 27.2366 19.7734C27.2906 19.6424 27.3444 19.5116 27.4933 19.3662C27.593 19.3871 27.6754 19.3121 27.7581 19.2369C27.8279 19.1734 27.8979 19.1097 27.9786 19.1035C28.0235 19.1299 28.0567 19.0974 28.09 19.0648C28.1019 19.0532 28.1137 19.0416 28.1262 19.0326C28.3282 18.7851 28.537 18.5679 28.7665 18.4569C28.9531 18.3113 29.1624 18.2802 29.3919 18.3655C29.9627 18.3576 30.8211 18.3751 31.341 19.046C31.7958 19.268 31.9587 19.5331 31.9166 19.8286L31.8728 19.8839C31.9262 19.919 31.9248 19.9617 31.9234 20.0043C31.9216 20.0584 31.9199 20.1123 32.0309 20.1502L31.9876 20.2048C32.3113 20.3508 32.3282 20.5416 32.3026 20.7376C32.3911 20.7697 32.3819 20.8159 32.3727 20.862C32.3654 20.8984 32.3582 20.9348 32.399 20.9641L32.3547 21.0199C32.4392 21.231 32.4817 21.4503 32.4786 21.6772C32.4016 21.7478 32.4159 21.8055 32.4302 21.8633C32.4465 21.9296 32.4629 21.996 32.3414 22.0818C32.3314 22.1044 32.3335 22.1251 32.3356 22.1457C32.3383 22.1727 32.341 22.1995 32.3163 22.2299C32.3481 22.636 31.7367 23.1607 31.4074 23.3759C31.3563 23.3533 31.3111 23.3609 31.266 23.3685C31.225 23.3754 31.1841 23.3823 31.139 23.3663C31.0603 23.4015 30.9769 23.4103 30.8935 23.419C30.7664 23.4323 30.6394 23.4456 30.5297 23.5525C30.505 23.5432 30.4824 23.5448 30.4597 23.5464C30.4298 23.5485 30.4 23.5505 30.3653 23.5282C30.1858 23.803 29.9825 23.955 29.7668 24.05C29.4514 23.9401 29.1615 23.967 28.8715 23.9939C28.5477 24.024 28.2238 24.054 27.8646 23.8936C27.4736 23.9985 27.0305 23.8272 26.5679 23.552C26.5309 23.5797 26.4896 23.5848 26.4482 23.5899C26.4026 23.5955 26.3569 23.6011 26.3168 23.637C25.8767 23.3807 25.7971 23.0713 25.931 22.7291C25.9685 22.6813 25.9516 22.6413 25.9347 22.6013C25.9132 22.5504 25.8917 22.4995 25.9824 22.4326C25.9015 22.3734 25.9844 22.2908 26.0674 22.2082C26.1167 22.1592 26.166 22.1101 26.181 22.0659C26.0283 21.7188 25.9958 21.3536 26.1352 20.9633C26.2317 20.8216 26.1809 20.7015 26.1302 20.5815ZM31.223 22.2704C31.1867 22.3742 31.1473 22.4872 31.0393 22.562L30.9964 22.6161C31.0118 22.6209 31.0277 22.6287 31.0435 22.6364C31.0863 22.6573 31.1288 22.6781 31.1608 22.6404C31.1875 22.5671 31.2684 22.486 31.3492 22.4049C31.4936 22.26 31.6377 22.1154 31.4718 22.0166C31.3085 22.0251 31.2682 22.1406 31.223 22.2704Z" fill="#CCFFDA"/>
<path fill-rule="evenodd" clip-rule="evenodd" d="M40.4378 69.0888L40.3944 69.1435L40.2729 69.0651L39.7245 68.7114C39.7085 68.6979 39.6896 68.6849 39.6707 68.6719C39.612 68.6316 39.5536 68.5914 39.5846 68.5385L39.3409 68.3814C39.3202 68.4317 39.3423 68.4778 39.4191 68.5144C39.2043 68.4688 38.7772 68.3112 38.7056 68.136C38.6008 68.1006 38.5137 68.1582 38.4265 68.216C38.3552 68.2632 38.2838 68.3104 38.2025 68.3071L38.1408 68.2673L38.0804 68.2283L38.0193 68.1889C37.9675 67.8981 38.3349 67.7909 38.5284 67.7344C38.5451 67.7295 38.5605 67.725 38.5743 67.7208C38.2932 67.4754 38.3309 67.1837 38.3685 66.8919C38.4133 66.5454 38.458 66.1987 37.9688 65.9294C37.959 65.8899 37.9449 65.8429 37.9294 65.791C37.832 65.4652 37.677 64.9465 38.1482 64.892C38.2418 64.8736 38.2481 64.8445 38.2586 64.7951C38.2628 64.776 38.2675 64.7538 38.2783 64.7281C38.3274 64.6839 38.3263 64.6477 38.3252 64.6115C38.3244 64.5837 38.3235 64.5559 38.3455 64.5245C38.3059 64.3828 38.6604 63.9359 38.8219 63.9239L38.8643 63.8703C38.949 63.8151 39.0322 63.7528 39.1153 63.6907C39.2828 63.5653 39.45 63.4403 39.6279 63.3732L39.689 63.4126L39.7494 63.4516C39.9763 63.2587 40.2277 63.1971 40.4794 63.1354C40.6375 63.0967 40.7958 63.0579 40.9482 62.9865C41.0642 62.8786 41.1982 62.8659 41.3324 62.8533C41.4611 62.8411 41.59 62.8289 41.7034 62.7327C41.7847 62.7532 41.9007 62.7323 42.0155 62.7117C42.1942 62.6795 42.3699 62.6479 42.4069 62.7734C42.6102 62.887 42.7969 62.9128 42.9838 62.9387C43.1632 62.9636 43.3427 62.9884 43.5369 63.091C43.6211 62.9387 44.0452 63.1752 44.0072 63.3117C44.3152 63.5077 44.5651 63.7128 44.6086 63.9465C44.6992 63.9972 44.7874 64.0498 44.7479 64.119L44.9305 64.2367L44.8876 64.2908C44.9997 64.6454 45.0087 65.0135 44.9347 65.3942L44.9377 65.4077C45.0194 65.7767 45.1012 66.1456 44.8349 66.5664C44.9127 66.6317 44.8605 66.7161 44.8081 66.8008C44.7622 66.8751 44.7161 66.9496 44.7579 67.0116C44.7649 67.2028 44.6343 67.4146 44.4473 67.6347L44.4039 67.6894C44.0886 68.0979 43.7717 68.501 43.4173 68.7018L43.1581 69.0286C43.1237 69.0784 43.0834 69.0959 43.0434 69.1132C43.0008 69.1317 42.9586 69.15 42.9241 69.2072L42.8624 69.1674C42.7056 69.1868 42.5656 69.2978 42.4374 69.4716C42.2047 69.6571 41.9551 69.756 41.6835 69.7262C41.6465 69.8146 41.5825 69.7587 41.5183 69.7027C41.4541 69.6466 41.3896 69.5904 41.352 69.6785L41.2916 69.6395C41.2561 69.6347 41.2152 69.6314 41.1715 69.6279C40.9719 69.6121 40.7152 69.5917 40.6569 69.3945L40.6998 69.3404C40.6656 69.2478 40.5924 69.1619 40.4378 69.0888ZM42.0383 64.5149C42.1423 64.55 42.2322 64.5736 42.3142 64.5953C42.5517 64.6578 42.7229 64.703 42.9788 64.9563C42.9049 65.0472 42.839 65.1574 42.7732 65.2675C42.5908 65.5724 42.409 65.8764 42.0603 65.7665C41.8366 65.677 41.8235 65.5571 41.8105 65.4375C41.8029 65.3674 41.7952 65.2974 41.7452 65.2337L41.562 65.1155L41.6062 65.0597C41.36 64.8469 41.1683 64.919 40.9764 64.9912C40.9513 65.0006 40.9263 65.01 40.9011 65.0188L40.8413 64.9802C40.8089 65.0175 40.7657 64.9963 40.7227 64.9751L40.7227 64.9751C40.7072 64.9675 40.6917 64.9598 40.6767 64.955L40.8058 64.7921C40.8473 64.6929 40.9079 64.6948 40.9684 64.6967C41.0157 64.6982 41.0629 64.6997 41.1009 64.6529C41.1567 64.6845 41.201 64.6528 41.2452 64.6212C41.2957 64.5851 41.3461 64.549 41.4135 64.6067C41.6148 64.536 41.8227 64.5067 42.0383 64.5149ZM39.0663 64.0814C39.1082 64.1256 39.1378 64.1731 39.1606 64.2196C39.1366 64.1723 39.1082 64.1256 39.0663 64.0814ZM39.301 65.1871C39.3035 65.144 39.2979 65.1025 39.2888 65.0631C39.2984 65.102 39.3035 65.144 39.301 65.1871Z" fill="#CCFFDA"/>
<path fill-rule="evenodd" clip-rule="evenodd" d="M31.2642 73.9232C31.2726 74.1235 31.2811 74.3239 31.029 74.5618C31.1486 74.7456 30.7846 75.2045 30.5535 75.1612C30.2776 75.3163 29.804 75.9135 29.7308 76.1985L29.5583 76.416C29.7441 76.5625 29.415 76.8441 29.2558 76.7974C29.0644 76.8108 28.901 76.9746 28.7377 77.1382C28.5858 77.2905 28.4341 77.4426 28.26 77.4734C28.2142 77.4465 28.1805 77.4798 28.1473 77.5127C28.1358 77.5242 28.1243 77.5355 28.1124 77.5443C27.9803 77.7921 27.8051 77.8177 27.5907 77.62L27.4178 77.838C27.3666 77.8287 27.3255 77.8708 27.2844 77.9129C27.2358 77.9626 27.1872 78.0124 27.1221 77.9769L26.9916 78.1414C26.9136 78.0813 26.8622 78.1677 26.8107 78.254C26.781 78.3039 26.7513 78.3537 26.7166 78.3754C26.6274 78.3824 26.5318 78.344 26.4283 78.272C26.3851 78.2295 26.3548 78.2556 26.3239 78.2873L26.2376 78.396L26.1161 78.3176C25.9337 78.1151 25.8001 78.166 25.6664 78.2168C25.6172 78.2355 25.5679 78.2543 25.5163 78.2603C25.4833 78.2482 25.452 78.2445 25.4209 78.2409C25.3606 78.2338 25.3006 78.2268 25.2288 78.1584C25.0241 78.0601 24.9958 77.9364 24.9675 77.8129C24.9353 77.6721 24.9031 77.5316 24.6096 77.4295L24.6534 77.3742L24.4097 77.2171C24.3468 77.2239 24.2842 77.2328 24.2216 77.2417C23.9189 77.2848 23.6159 77.3279 23.2705 77.1414L23.2263 77.1972C23.0424 77.0747 22.8816 77.0791 22.7207 77.0836C22.5976 77.0869 22.4744 77.0903 22.3409 77.0367L21.914 76.7613C21.8577 76.806 21.7842 76.7579 21.7103 76.7096C21.6822 76.6912 21.6539 76.6728 21.6266 76.6594L21.5044 76.5806C21.5461 76.5357 21.5514 76.4959 21.5567 76.4561C21.5624 76.4138 21.568 76.3715 21.6174 76.323C21.6884 76.3133 21.7581 76.2951 21.8278 76.2768C21.9622 76.2416 22.0969 76.2064 22.2424 76.2322C22.2868 76.2755 22.3174 76.2479 22.3466 76.216C22.4933 76.3057 22.6153 76.2643 22.7371 76.2228C22.7662 76.2129 22.7954 76.203 22.8249 76.1949L23.0407 75.9228L22.7971 75.7656L22.7542 75.8197C22.6782 75.8308 22.6025 75.8433 22.5267 75.8558C21.9967 75.9432 21.4657 76.0308 20.85 75.6646C20.7145 75.2557 20.3247 74.7321 19.9472 74.2249C19.8437 74.0859 19.7411 73.9481 19.645 73.8143C19.4674 73.8151 19.2858 73.8003 19.0891 73.7027C19.0027 73.5423 18.9402 73.3784 18.8778 73.2144C18.7662 72.9216 18.6546 72.6286 18.4064 72.3555C18.3445 72.2856 18.3245 72.2097 18.3044 72.1337C18.2755 72.0242 18.2466 71.9146 18.092 71.8231C18.1223 71.7832 18.0849 71.7523 18.0483 71.7221C18.0356 71.7116 18.023 71.7013 18.0134 71.6906C17.9867 71.6252 17.9476 71.5617 17.9086 71.4981C17.8207 71.355 17.7328 71.2119 17.7855 71.048L17.6634 70.9692L17.7062 70.9151C17.4962 70.7564 17.5017 70.566 17.5071 70.3757C17.5127 70.1785 17.5183 69.9814 17.2845 69.8196C17.1296 69.73 16.9854 69.6378 16.9636 69.5283C17.0015 69.462 16.9701 69.3639 16.9398 69.2694C16.8966 69.1347 16.8557 69.0075 17.022 68.9903C17.0153 68.7502 17.0788 68.5003 17.1498 68.2483C17.0885 68.1906 17.1513 68.115 17.214 68.0395C17.2728 67.9686 17.3316 67.8979 17.2873 67.8422C17.3751 67.6915 17.4763 67.6133 17.5774 67.5352C17.6789 67.4567 17.7802 67.3784 17.8676 67.2269C17.8152 67.1222 17.9406 66.9914 18.0661 66.8607C18.1917 66.7298 18.3173 66.5988 18.2643 66.494C18.3244 66.4407 18.3251 66.3958 18.3259 66.3509C18.3268 66.2989 18.3278 66.2467 18.421 66.1812L18.4634 66.1277C18.6408 65.9332 18.8364 65.8381 19.0534 65.8482C19.1818 65.7822 19.3013 65.6688 19.4209 65.5553C19.5434 65.439 19.666 65.3226 19.7982 65.2572C19.8577 65.2142 19.9169 65.1698 19.9762 65.1253C20.3391 64.8532 20.7023 64.5808 21.1255 64.6289L21.1872 64.6687C21.2575 64.601 21.344 64.6214 21.4307 64.6418C21.4745 64.6522 21.5184 64.6626 21.5603 64.6615C21.6568 64.6446 21.7512 64.6157 21.8455 64.5868C22.0545 64.5229 22.2637 64.4589 22.4979 64.5245L22.5842 64.4158C22.8617 64.4648 23.1117 64.3714 23.3401 64.1599C23.4487 64.0587 23.5706 64.0302 23.6926 64.0016C23.8435 63.9662 23.9945 63.9308 24.1205 63.7579L24.1634 63.7039L24.2232 63.7424C25.0322 62.4914 26.3021 63.1205 27.4363 63.6823C27.7605 63.8429 28.0736 63.9979 28.3617 64.1021C28.4289 64.2265 28.4436 64.3587 28.4583 64.4908C28.4858 64.7386 28.5134 64.9863 28.8869 65.1835C28.6893 65.5491 29.0853 65.8294 29.542 66.0999C29.547 66.1837 29.5775 66.2639 29.6079 66.344C29.6702 66.5075 29.7324 66.671 29.5775 66.8663L29.7614 66.9849C29.7873 67.1914 29.912 67.3833 30.0368 67.5752C30.2074 67.8377 30.3781 68.1002 30.2965 68.4005C30.4398 68.5558 30.578 68.7137 30.5501 68.8945L30.5067 68.9491C30.546 68.9888 30.5633 69.0318 30.5806 69.075C30.6059 69.1378 30.6313 69.201 30.7252 69.2544C30.7475 69.3507 30.7863 69.4446 30.825 69.5385C30.9112 69.7474 30.9973 69.9563 30.9024 70.1914C30.9094 70.2484 30.9356 70.3022 30.9618 70.3558C31.0089 70.4524 31.0557 70.5485 30.9895 70.6623C31.0071 70.6803 31.0129 70.7001 31.0188 70.72C31.0265 70.7462 31.0342 70.7725 31.0693 70.7946C30.9827 70.9356 31.0351 71.056 31.0875 71.1764C31.147 71.313 31.2064 71.4495 31.0631 71.6159C31.152 71.7547 31.1419 71.9081 31.1319 72.0616C31.1282 72.119 31.1244 72.1763 31.1258 72.2329L31.0825 72.2875C31.2708 72.7025 31.3261 73.135 31.3815 73.5687C31.3846 73.5929 31.3877 73.6171 31.3908 73.6412L31.2612 73.8046C31.2609 73.8443 31.2625 73.8837 31.2642 73.9232ZM27.0113 64.0976C27.125 64.1081 27.236 64.1126 27.3444 64.1068C27.236 64.1126 27.1244 64.1077 27.0113 64.0976ZM26.0885 63.904C25.6183 63.7829 25.1352 63.6585 24.659 63.6914C25.1334 63.6586 25.6148 63.7827 26.0833 63.9034C26.3764 63.979 26.6645 64.0533 26.9428 64.087C26.6661 64.0527 26.3798 63.979 26.0885 63.904ZM30.4402 74.8532L30.442 74.8509C30.4865 74.8142 30.5295 74.7782 30.572 74.7403C30.5295 74.7782 30.4847 74.8165 30.4402 74.8532ZM29.0742 67.9812C29.0977 68.0049 29.1192 68.0275 29.1423 68.0518C29.1308 68.0401 29.1195 68.0283 29.1082 68.0165C29.0969 68.0047 29.0856 67.9929 29.0742 67.9812ZM27.5887 66.6058L27.5893 66.6062C27.9906 66.8134 28.4143 67.2713 28.7992 67.6872L28.7993 67.6873L28.7994 67.6874C28.851 67.7431 28.9019 67.7981 28.9519 67.8517C28.9039 67.8002 28.8551 67.7474 28.8056 67.6939L28.8055 67.6938L28.8052 67.6934L28.8051 67.6934L28.8051 67.6934L28.8051 67.6934L28.8051 67.6933L28.8051 67.6933L28.8047 67.693L28.8047 67.6929L28.8047 67.6929L28.8046 67.6929C28.4182 67.2749 27.9924 66.8144 27.5887 66.6058ZM25.4445 75.7356L25.4445 75.7356L25.4445 75.7356C25.4667 75.7479 25.4892 75.7604 25.5123 75.7725L25.4157 75.7197L25.4445 75.7356ZM25.2354 74.7817C25.2087 74.7911 25.1801 74.8053 25.1526 74.8194C25.1801 74.8053 25.2083 74.7917 25.2354 74.7817ZM25.3432 75.5306C25.3672 75.5456 25.3913 75.5606 25.4142 75.5785C25.3927 75.5604 25.369 75.546 25.3456 75.5318L25.3456 75.5318L25.3456 75.5318L25.3456 75.5318L25.3456 75.5318L25.3456 75.5318L25.3456 75.5318L25.3456 75.5318L25.3455 75.5318L25.3455 75.5318L25.3455 75.5318L25.3455 75.5318L25.3455 75.5317L25.3455 75.5317L25.3455 75.5317L25.3455 75.5317L25.3455 75.5317L25.3455 75.5317L25.3454 75.5317L25.3454 75.5317L25.3454 75.5317C25.3357 75.5258 25.326 75.5199 25.3165 75.5138C25.3253 75.5195 25.3342 75.525 25.3431 75.5306L25.3432 75.5306ZM25.0461 75.3867C24.9829 75.3682 24.9165 75.3513 24.8481 75.3381L24.8474 75.3377C24.9159 75.3509 24.9829 75.3682 25.0461 75.3867ZM21.1298 71.4545C21.1047 71.292 21.0755 71.1048 21.0314 70.917C21.0752 71.1015 21.1035 71.2845 21.1283 71.4447L21.1283 71.4447L21.1283 71.4447L21.1298 71.4545ZM26.7464 65.8259C26.7278 65.807 26.7091 65.7881 26.6885 65.7679L26.699 65.7782C26.7157 65.7945 26.7315 65.8099 26.747 65.8263L26.7464 65.8259ZM27.2054 66.4902C27.258 66.4906 27.3129 66.5002 27.3672 66.5154C27.3122 66.4998 27.258 66.4906 27.2054 66.4902ZM27.5378 66.579C27.5229 66.572 27.5082 66.5655 27.4936 66.5595C27.5083 66.5656 27.5231 66.5722 27.5378 66.579ZM27.4936 66.5595C27.4552 66.5435 27.4176 66.5306 27.3808 66.5199C27.4177 66.5301 27.4556 66.5436 27.4936 66.5595ZM27.5838 66.6326C27.5554 66.7571 27.5835 66.8696 27.6566 66.9628C27.5831 66.8702 27.5554 66.7572 27.5838 66.6326ZM20.7074 70.2245C20.734 70.2528 20.7583 70.284 20.7817 70.3163C20.7589 70.2844 20.734 70.2528 20.7074 70.2245ZM20.8776 70.4754C20.9002 70.5209 20.922 70.5686 20.9406 70.6167C20.9216 70.5691 20.8997 70.5215 20.8776 70.4754ZM20.6178 70.3569C20.6437 70.3741 20.6732 70.4044 20.7067 70.4389C20.7693 70.5032 20.846 70.582 20.9398 70.6178C20.8455 70.5819 20.7686 70.5028 20.7058 70.4383C20.6727 70.4043 20.6435 70.3743 20.6178 70.3569ZM30.194 75.0532C30.1538 75.0857 30.1114 75.1221 30.0678 75.1602C30.1114 75.1221 30.1533 75.0863 30.194 75.0532ZM30.2303 75.0233C30.285 74.9786 30.3384 74.9355 30.3889 74.8949C30.3388 74.935 30.285 74.9786 30.2303 75.0233ZM30.1974 74.8635C30.2601 74.8644 30.3241 74.8747 30.3889 74.8949C30.3241 74.8747 30.2606 74.8638 30.1974 74.8635Z" fill="#CCFFDA"/>
<path fill-rule="evenodd" clip-rule="evenodd" d="M9.32246 66.266C9.30119 66.3303 9.27989 66.3947 9.26323 66.4585C9.26483 66.5559 9.22799 66.657 9.10911 66.7705C9.06814 67.067 8.84055 67.2395 8.60754 67.4161C8.44941 67.536 8.28878 67.6577 8.18228 67.8214L8.12184 67.7824C8.0992 67.8105 8.07691 67.84 8.05468 67.8694C7.96213 67.9919 7.87046 68.1132 7.75797 68.126C7.55033 68.3526 7.33539 68.5376 7.09883 68.6079C7.00965 68.7445 6.90139 68.7824 6.79308 68.8204C6.70022 68.853 6.60732 68.8856 6.52639 68.9804L6.46658 68.9418C6.41288 69.0704 6.33701 69.0802 6.26108 69.09C6.21451 69.096 6.16792 69.102 6.12642 69.1355C6.03084 69.1917 5.92687 69.2064 5.81405 69.1801C5.70538 69.1401 5.67935 69.0881 5.65323 69.0358C5.6271 68.9836 5.60088 68.9312 5.49176 68.8905C5.15147 68.7212 4.85248 68.7758 4.55338 68.8305C4.28277 68.8799 4.01207 68.9294 3.71061 68.813C3.66675 68.7701 3.63728 68.7976 3.60682 68.8287C3.23315 68.9276 2.8377 68.9169 2.40841 68.7149C2.32242 68.736 2.23115 68.7262 2.13785 68.7056C1.97609 68.7932 1.78819 68.7451 1.58218 68.595C1.42939 68.6743 1.2387 68.5448 1.04759 68.415C1.03432 68.406 1.02104 68.397 1.00777 68.388L0.82454 68.2699C0.771671 68.3488 0.691667 68.2826 0.611428 68.2162C0.564578 68.1774 0.517649 68.1386 0.475992 68.1285C0.411709 68.2012 0.319122 68.1261 0.22634 68.0508C0.171512 68.0063 0.116616 67.9618 0.0674535 67.9476L-0.542684 67.5541C-0.619626 67.5165 -0.641092 67.4708 -0.620219 67.4215C-0.94892 67.1957 -1.26221 66.9687 -1.44887 66.7227C-1.77555 66.4483 -1.9757 66.1574 -2.04196 65.8445L-2.16348 65.7661C-2.24701 65.5879 -2.26561 65.401 -2.28423 65.2139C-2.29396 65.1161 -2.30369 65.0183 -2.32269 64.9216C-2.34969 64.8808 -2.31847 64.8317 -2.2873 64.7827C-2.25081 64.7253 -2.21438 64.668 -2.27146 64.6243L-2.18522 64.5155L-2.14187 64.4609C-2.3178 64.2777 -2.38059 64.078 -2.31024 63.8583C-2.25075 63.8052 -2.24976 63.7605 -2.24877 63.7158C-2.24762 63.6638 -2.24647 63.6118 -2.15331 63.5465C-2.24808 63.5043 -2.17775 63.4378 -2.10727 63.3712C-2.03664 63.3045 -1.96584 63.2376 -2.06091 63.1948L-1.10955 61.9953C-0.945698 61.9039 -0.795891 61.738 -0.64624 61.5723C-0.485525 61.3943 -0.324989 61.2166 -0.147433 61.1314C-0.0746614 61.0568 -0.0759971 60.9924 -0.0773353 60.9279C-0.0786581 60.8642 -0.0799834 60.8004 -0.00977669 60.7263C0.00202167 60.6377 0.0369979 60.5458 0.0719255 60.454C0.108213 60.3587 0.144449 60.2635 0.154583 60.1723C0.0927277 60.0102 0.443541 59.6419 0.60469 59.72L0.73473 59.556C0.849138 59.4485 0.986522 59.4605 1.1239 59.4725C1.25899 59.4844 1.39408 59.4962 1.50732 59.3943L1.5684 59.4337C2.69329 59.3443 3.83396 59.3357 5.00918 59.5103L5.06962 59.5493C5.18336 59.655 5.2835 59.6848 5.38355 59.7145C5.43492 59.7297 5.48626 59.745 5.53942 59.7705C5.63838 59.7233 5.75003 59.7523 5.86978 59.8184C6.11709 59.9495 6.35125 60.0129 6.58534 60.0763C6.84023 60.1454 7.09504 60.2144 7.3666 60.3707C7.53908 60.34 7.72079 60.3583 7.90491 60.3892C7.99278 60.4261 8.08721 60.4973 8.18164 60.5685C8.33694 60.6855 8.49221 60.8026 8.61819 60.7667L8.74035 60.8455C8.77026 60.8987 8.82834 60.9479 8.88645 60.9971C8.9902 61.0849 9.09403 61.1727 9.03767 61.2842L9.09874 61.3236C9.07592 61.3596 9.05663 61.3937 9.11602 61.4182C9.42229 61.7414 9.40868 62.1138 9.37268 62.489C9.39937 62.5358 9.41636 62.5842 9.43333 62.6326C9.45933 62.7068 9.4853 62.7808 9.54611 62.8487C9.49827 62.8884 9.52984 62.9165 9.56493 62.9426C9.54196 62.9742 9.54256 63.0025 9.54317 63.0308C9.54394 63.0671 9.54472 63.1034 9.49616 63.1469C9.55886 63.284 9.55925 63.431 9.55964 63.5783C9.55989 63.6722 9.56014 63.7662 9.57656 63.8579L9.53321 63.9126L9.5377 63.9246C9.61618 64.1339 9.69466 64.3432 9.55362 64.584C9.60502 64.882 9.51846 65.1997 9.43166 65.5182C9.42708 65.5351 9.42249 65.5519 9.41793 65.5687C9.3559 65.6251 9.35389 65.6737 9.39122 65.7176C9.447 65.8896 9.38485 66.0774 9.32246 66.266ZM4.54425 59.5305C4.56044 59.5291 4.57655 59.5274 4.59261 59.5256C4.57647 59.5274 4.56034 59.529 4.54425 59.5305ZM4.59261 59.5256C4.64202 59.5197 4.69098 59.5116 4.7405 59.5013C4.69165 59.5126 4.64206 59.52 4.59261 59.5256ZM4.22107 59.5468C3.89678 59.5553 3.57274 59.5637 3.28354 59.762C3.57077 59.5651 3.89317 59.5564 4.21503 59.5478L4.21503 59.5478L4.21504 59.5478L4.21504 59.5478L4.21504 59.5478L4.21504 59.5478L4.21504 59.5478L4.21505 59.5478L4.21505 59.5478L4.21505 59.5478L4.21505 59.5478L4.21505 59.5478L4.21505 59.5478L4.21506 59.5478L4.21506 59.5478L4.21506 59.5478L4.21506 59.5478L4.21506 59.5478L4.21507 59.5478L4.21507 59.5478L4.21507 59.5478L4.21507 59.5478L4.21507 59.5478L4.21508 59.5478L4.21508 59.5478L4.21508 59.5478L4.21508 59.5478L4.21508 59.5478L4.21508 59.5478L4.21509 59.5478L4.21509 59.5478L4.21509 59.5478L4.21509 59.5478C4.323 59.5449 4.43084 59.542 4.53728 59.532C4.43265 59.5413 4.32684 59.5441 4.22107 59.5468ZM3.28913 59.7621C3.53434 59.7318 3.78001 59.7009 4.02366 59.6653C3.77956 59.7015 3.53434 59.7318 3.28913 59.7621ZM9.22792 63.7156L9.22747 63.7162C9.23164 63.7699 9.23098 63.8244 9.23032 63.8788C9.23005 63.9009 9.22978 63.923 9.22983 63.945C9.22978 63.9223 9.23007 63.8995 9.23036 63.8767L9.23036 63.8765L9.23036 63.8765C9.23105 63.8228 9.23174 63.769 9.22792 63.7156ZM-0.166556 65.5704C0.120462 65.753 0.301703 65.9525 0.0618001 66.2125C-0.243895 66.0317 -0.460846 65.8384 -0.166556 65.5704ZM7.12958 61.3779C7.21248 61.4322 7.29539 61.4925 7.37605 61.5557C7.29539 61.4925 7.21311 61.4326 7.12958 61.3779ZM7.46868 61.8154C7.31065 61.6781 7.1523 61.5405 7.1303 61.3843C7.15239 61.5411 7.31165 61.6795 7.47031 61.8173C7.5366 61.8748 7.60278 61.9323 7.65881 61.991C7.6024 61.9316 7.53557 61.8736 7.46868 61.8154ZM7.85472 61.9818L7.8547 61.9818L7.85464 61.9817C7.78589 61.9164 7.71993 61.8538 7.6539 61.7934C7.71022 61.8441 7.76591 61.8972 7.82341 61.952L7.8665 61.993L7.85472 61.9818ZM4.68922 66.5037C4.70133 66.4391 4.69003 66.3701 4.67789 66.296C4.66467 66.2154 4.65046 66.1286 4.66432 66.0346C4.65052 66.1284 4.66478 66.215 4.67803 66.2955L4.67803 66.2955C4.69027 66.3699 4.70166 66.4391 4.68922 66.5037Z" fill="#CCFFDA"/>
</svg>

