<svg width="62" height="57" viewBox="0 0 62 57" fill="none" xmlns="http://www.w3.org/2000/svg">
<path opacity="0.25" d="M-69.7996 3.70011C-73.2052 -3.83026 -74.7901 -13.5964 -75.0847 -22.0561C-75.3528 -29.7909 -67.9731 -41.3201 -61.4743 -46.4528C-47.5633 -57.435 -34.0501 -46.8776 -17.0813 -53.5052C-10.3585 -56.1313 -4.37229 -60.3107 2.68628 -62.0765C16.3998 -65.5044 31.0502 -58.9379 40.9841 -49.7506C53.4007 -38.1591 60.5426 -22.7919 60.9991 -6.68468C61.3202 7.01125 55.7611 21.7268 42.9461 29.0979C35.9199 33.1339 27.3677 34.6368 20.4476 38.8188C13.2741 43.1549 8.2424 50.1436 0.51509 53.6247C-8.74708 57.7961 -20.0331 56.033 -29.4986 52.2492C-39.1526 48.3911 -51.2223 43.2213 -59.0615 36.8911C-65.7666 31.4876 -66.6769 23.2695 -66.9361 15.6276C-67.0657 11.7695 -66.9951 6.90504 -69.6523 3.65232" fill="#F5F8FF"/>
</svg>

