<svg width="97" height="77" viewBox="0 0 97 77" fill="none" xmlns="http://www.w3.org/2000/svg">
<path opacity="0.25" d="M6.7162 20.285C3.02584 12.1241 1.30837 1.54015 0.989131 -7.62798C0.698627 -16.0105 8.69547 -28.5052 15.7378 -34.0677C30.8121 -45.9695 45.4555 -34.5281 63.8435 -41.7107C71.1284 -44.5566 77.6153 -49.086 85.2642 -50.9996C100.125 -54.7147 116 -47.5983 126.765 -37.6417C140.22 -25.0794 147.959 -8.42538 148.454 9.03063C148.802 23.8735 142.778 39.8213 128.891 47.8096C121.277 52.1836 112.01 53.8123 104.511 58.3446C96.7375 63.0438 91.285 70.6177 82.9114 74.3903C72.8747 78.911 60.6447 77.0003 50.3877 72.8997C39.9263 68.7185 26.8472 63.1157 18.3524 56.2554C11.0865 50.3995 10.1001 41.4932 9.81918 33.2114C9.67872 29.0302 9.75533 23.7584 6.87582 20.2332" fill="#F5F8FF"/>
</svg>

