<svg width="100" height="11" viewBox="0 0 100 11" fill="none" xmlns="http://www.w3.org/2000/svg">
<path d="M42.7664 -69.7514C48.0294 -72.6623 54.5258 -73.4205 60.6407 -72.6381C66.7549 -71.8563 72.54 -69.6295 77.9376 -66.9284C86.5445 -62.6215 94.8508 -56.4063 97.2481 -47.8071C99.1965 -40.8206 96.7976 -33.2247 92.0697 -27.4146C86.9812 -21.1614 79.5522 -16.8663 72.7622 -12.0989C66.924 -8.0005 61.4626 -3.46722 56.4518 1.43859C53.58 4.25051 50.6429 7.31309 46.5985 8.46458C41.9991 9.77465 37.0151 8.30326 32.6432 6.46557C27.3641 4.24705 22.374 1.47321 17.8061 -1.78256C13.3511 -4.95731 9.23989 -8.659 6.55802 -13.1687C3.33023 -18.5987 2.35221 -24.8769 2.00236 -31.0277C1.77785 -34.9807 1.80399 -39.0224 3.15185 -42.7898C5.69994 -49.9162 12.6276 -55.0914 19.9612 -58.6165C27.2956 -62.1416 35.5473 -66.0386 42.7664 -69.7514" stroke="#BCF6F9" stroke-width="3"/>
</svg>

