<svg width="108" height="108" viewBox="0 0 108 108" fill="none" xmlns="http://www.w3.org/2000/svg">
<g filter="url(#filter0_b)">
<path d="M53.8181 107.636C83.541 107.636 107.636 83.541 107.636 53.8181C107.636 24.0952 83.541 0 53.8181 0C24.0952 0 0 24.0952 0 53.8181C0 83.541 24.0952 107.636 53.8181 107.636Z" fill="white"/>
</g>
<path d="M65.875 49.25C66.7891 49.25 67.5625 49.6016 68.2656 50.2344C68.8984 50.9375 69.25 51.7109 69.25 52.625V66.125C69.25 67.1094 68.8984 67.8828 68.2656 68.5156C67.5625 69.2188 66.7891 69.5 65.875 69.5H41.125C40.1406 69.5 39.3672 69.2188 38.7344 68.5156C38.0312 67.8828 37.75 67.1094 37.75 66.125V52.625C37.75 51.7109 38.0312 50.9375 38.7344 50.2344C39.3672 49.6016 40.1406 49.25 41.125 49.25H42.8125V44.1875C42.8125 42.2891 43.2344 40.5312 44.2188 38.8438C45.2031 37.2266 46.4688 35.9609 48.1562 34.9766C49.7734 33.9922 51.5312 33.5 53.5 33.5C55.3984 33.5 57.1562 33.9922 58.8438 34.9766C60.4609 35.9609 61.7266 37.2266 62.7109 38.8438C63.6953 40.5312 64.1875 42.2891 64.1875 44.1875V49.25H65.875ZM58.5625 49.25V44.1875C58.5625 42.7812 58.0703 41.5859 57.0859 40.6016C56.1016 39.6172 54.9062 39.125 53.5 39.125C52.0938 39.125 50.8984 39.6172 49.9141 40.6016C48.9297 41.5859 48.4375 42.7812 48.4375 44.1875V49.25H58.5625Z" fill="#2D3445"/>
<defs>
<filter id="filter0_b" x="-27.1828" y="-27.1828" width="162.002" height="162.002" filterUnits="userSpaceOnUse" color-interpolation-filters="sRGB">
<feFlood flood-opacity="0" result="BackgroundImageFix"/>
<feGaussianBlur in="BackgroundImage" stdDeviation="13.5914"/>
<feComposite in2="SourceAlpha" operator="in" result="effect1_backgroundBlur"/>
<feBlend mode="normal" in="SourceGraphic" in2="effect1_backgroundBlur" result="shape"/>
</filter>
</defs>
</svg>

