<svg width="16" height="19" viewBox="0 0 16 19" fill="none" xmlns="http://www.w3.org/2000/svg" class="" > <path d="M15.0312 7.80859C15.3828 8.01953 15.6289 8.33594 15.7695 8.6875C15.9102 9.07422 15.9102 9.46094 15.7695 9.8125C15.6289 10.1992 15.3828 10.4805 15.0312 10.6914L2.65625 18.0039C2.30469 18.2148 1.91797 18.2852 1.53125 18.2148C1.10938 18.1445 0.792969 17.9688 0.511719 17.6523C0.230469 17.3711 0.125 16.9844 0.125 16.5625V1.9375C0.125 1.48047 0.265625 1.09375 0.546875 0.8125C0.828125 0.53125 1.14453 0.355469 1.56641 0.285156C1.95312 0.214844 2.30469 0.285156 2.65625 0.496094L15.0312 7.80859Z" fill="white" /></svg>
