<svg width="18" height="17" viewBox="0 0 18 17" fill="none" xmlns="http://www.w3.org/2000/svg">
<path d="M17.5625 5.9375C17.8438 6.25 18 6.59375 18 7C18 7.4375 17.8438 7.78125 17.5625 8.0625L12.0625 13.5625C11.75 13.875 11.375 14 10.9688 14C10.5625 14 10.2188 13.875 9.9375 13.5938C9.625 13.3125 9.5 12.9375 9.5 12.5V10.0625C8 10.1562 6.90625 10.3438 6.21875 10.6562C5.53125 10.9688 5.15625 11.4375 5.03125 12C4.9375 12.5 5.03125 13.1875 5.3125 14.0625C5.4375 14.5 5.375 14.875 5.15625 15.25C4.9375 15.625 4.625 15.8438 4.21875 15.9688C3.8125 16.0938 3.4375 16 3.0625 15.75C2.09375 15.125 1.34375 14.375 0.8125 13.4375C0.25 12.5 0 11.4375 0 10.3125C0 7.9375 1.03125 6.25 3.125 5.21875C4.59375 4.53125 6.71875 4.125 9.5 4.03125V1.5C9.5 1.0625 9.625 0.71875 9.9375 0.4375C10.2188 0.15625 10.5625 0 10.9688 0C11.375 0 11.75 0.15625 12.0625 0.4375L17.5625 5.9375ZM11 12.5L16.5 7L11 1.5V5.5C9.125 5.5 7.625 5.59375 6.5625 5.78125C4.96875 6.03125 3.78125 6.46875 2.96875 7.09375C1.96875 7.875 1.5 8.9375 1.5 10.3125C1.5 11.2812 1.75 12.1562 2.28125 12.9062C2.65625 13.5312 3.1875 14.0625 3.875 14.5C3.375 12.9375 3.375 11.6875 3.90625 10.75C4.34375 9.9375 5.21875 9.34375 6.53125 8.96875C7.59375 8.6875 9.09375 8.53125 11 8.5V12.5Z" fill="white"/>
</svg>

