<svg width="152" height="40" viewBox="0 0 152 40" fill="none" xmlns="http://www.w3.org/2000/svg">
<path d="M144.1 8.59912C143.923 8.60015 143.748 8.63608 143.584 8.70486C143.421 8.77363 143.273 8.87391 143.148 8.99997C143.024 9.12603 142.925 9.27539 142.858 9.43954C142.791 9.60368 142.757 9.77939 142.758 9.95663V16.0929C141.402 14.8958 139.676 14.1999 137.869 14.1211C136.062 14.0423 134.282 14.5855 132.827 15.66C131.371 16.7345 130.328 18.2754 129.871 20.0258C129.414 21.7762 129.571 23.6303 130.316 25.279C131.061 26.9277 132.348 28.2713 133.963 29.0859C135.579 29.9004 137.424 30.1366 139.193 29.755C140.961 29.3735 142.545 28.3973 143.681 26.9893C144.817 25.5812 145.436 23.8263 145.434 22.0173V9.95663C145.436 9.77976 145.403 9.60423 145.337 9.44013C145.271 9.27603 145.174 9.1266 145.05 9.00044C144.926 8.87428 144.778 8.77387 144.615 8.705C144.452 8.63613 144.277 8.60014 144.1 8.59912ZM142.758 22.0173C142.758 23.0543 142.451 24.0681 141.874 24.9303C141.298 25.7924 140.479 26.4643 139.521 26.8608C138.563 27.2573 137.508 27.3606 136.491 27.1577C135.474 26.9548 134.54 26.4548 133.807 25.721C133.075 24.9871 132.576 24.0524 132.375 23.0351C132.173 22.0178 132.278 20.9636 132.676 20.0059C133.074 19.0483 133.747 18.2302 134.61 17.6551C135.473 17.0801 136.487 16.774 137.525 16.7756C138.913 16.7777 140.245 17.3308 141.226 18.3136C142.207 19.2964 142.758 20.6285 142.758 22.0173Z" fill="white"/>
<path d="M117.578 22.0172C117.582 20.2019 116.963 18.4401 115.824 17.026C114.686 15.6119 113.097 14.631 111.323 14.2469C109.549 13.8629 107.696 14.099 106.075 14.9158C104.454 15.7326 103.162 17.0807 102.415 18.7351C101.667 20.3896 101.51 22.2502 101.969 24.0066C102.428 25.7629 103.476 27.3087 104.937 28.386C106.398 29.4632 108.185 30.0068 109.998 29.9259C111.812 29.845 113.543 29.1446 114.902 27.9416V28.5929C114.888 28.7772 114.912 28.9624 114.973 29.137C115.034 29.3115 115.13 29.4716 115.256 29.6073C115.381 29.7429 115.533 29.8511 115.703 29.9251C115.872 29.999 116.055 30.0372 116.24 30.0372C116.425 30.0372 116.608 29.999 116.777 29.9251C116.946 29.8511 117.099 29.7429 117.224 29.6073C117.35 29.4716 117.446 29.3115 117.507 29.137C117.568 28.9624 117.592 28.7772 117.578 28.5929V22.025V22.0172ZM109.66 27.2589C108.624 27.2589 107.61 26.9515 106.748 26.3755C105.886 25.7996 105.214 24.9809 104.818 24.0231C104.421 23.0653 104.317 22.0114 104.519 20.9946C104.722 19.9778 105.221 19.0438 105.954 18.3107C106.687 17.5777 107.621 17.0784 108.638 16.8762C109.654 16.6739 110.708 16.7777 111.666 17.1745C112.624 17.5712 113.443 18.2431 114.019 19.1051C114.595 19.967 114.902 20.9805 114.902 22.0172C114.9 23.4067 114.347 24.7388 113.364 25.7214C112.382 26.7039 111.05 27.2568 109.66 27.2589Z" fill="white"/>
<path d="M97.6624 14.0918C97.3086 14.0918 96.9693 14.2324 96.7191 14.4825C96.469 14.7327 96.3284 15.072 96.3284 15.4258V22.0172C96.3284 23.4074 95.7762 24.7406 94.7932 25.7236C93.8101 26.7066 92.4769 27.2589 91.0867 27.2589C89.6965 27.2589 88.3633 26.7066 87.3802 25.7236C86.3972 24.7406 85.845 23.4074 85.845 22.0172V15.4336C85.8191 15.0965 85.667 14.7816 85.4189 14.5518C85.1709 14.322 84.8452 14.1944 84.5071 14.1944C84.169 14.1944 83.8433 14.322 83.5953 14.5518C83.3472 14.7816 83.195 15.0965 83.1692 15.4336V22.0172C83.1792 23.8791 83.8444 25.6781 85.0483 27.0986C86.2521 28.5191 87.9176 29.4704 89.7527 29.7856V34.0464C89.7786 34.3836 89.9307 34.6985 90.1788 34.9283C90.4268 35.1581 90.7525 35.2857 91.0906 35.2857C91.4287 35.2857 91.7544 35.1581 92.0025 34.9283C92.2505 34.6985 92.4027 34.3836 92.4285 34.0464V29.7856C94.2675 29.4678 95.9353 28.5112 97.1382 27.0844C98.3411 25.6576 99.0019 23.852 99.0042 21.9858V15.4336C99.0052 15.2571 98.9712 15.0822 98.9042 14.9189C98.8371 14.7556 98.7383 14.6073 98.6135 14.4825C98.4887 14.3577 98.3404 14.2589 98.1771 14.1918C98.0138 14.1248 97.8389 14.0908 97.6624 14.0918Z" fill="white"/>
<path d="M129.544 15.2139L129.489 15.0255C129.429 14.8276 129.321 14.6472 129.176 14.4998C129.055 14.3762 128.911 14.2775 128.752 14.2095C128.588 14.1386 128.412 14.1013 128.234 14.0996C126.135 14.1017 124.122 14.9365 122.638 16.4209C121.153 17.9053 120.319 19.9179 120.316 22.0171V28.5928C120.302 28.7771 120.326 28.9624 120.387 29.1369C120.448 29.3115 120.544 29.4716 120.67 29.6072C120.796 29.7428 120.948 29.851 121.117 29.925C121.287 29.999 121.469 30.0372 121.654 30.0372C121.839 30.0372 122.022 29.999 122.191 29.925C122.361 29.851 122.513 29.7428 122.639 29.6072C122.764 29.4716 122.861 29.3115 122.921 29.1369C122.982 28.9624 123.006 28.7771 122.992 28.5928V22.0171C122.994 20.6276 123.547 19.2955 124.53 18.313C125.512 17.3304 126.844 16.7775 128.234 16.7754C128.587 16.7713 128.924 16.6281 129.173 16.3769C129.421 16.1257 129.56 15.7867 129.56 15.4336C129.559 15.3601 129.553 15.2868 129.544 15.2139Z" fill="white"/>
<path d="M60.5231 14.0918C60.1686 14.0918 59.8285 14.2321 59.5771 14.482C59.3257 14.732 59.1834 15.0713 59.1813 15.4258V28.5928C59.1672 28.7771 59.1913 28.9624 59.2521 29.1369C59.3129 29.3115 59.4092 29.4716 59.5348 29.6072C59.6604 29.7428 59.8127 29.851 59.9821 29.925C60.1515 29.999 60.3343 30.0372 60.5192 30.0372C60.704 30.0372 60.8869 29.999 61.0563 29.925C61.2257 29.851 61.378 29.7428 61.5036 29.6072C61.6292 29.4716 61.7254 29.3115 61.7863 29.1369C61.8471 28.9624 61.8712 28.7771 61.8571 28.5928V15.4258C61.8571 15.072 61.7165 14.7327 61.4664 14.4825C61.2162 14.2323 60.8769 14.0918 60.5231 14.0918Z" fill="white"/>
<path d="M55.7051 14.2329C55.3876 14.0745 55.0203 14.0483 54.6835 14.1601C54.3468 14.2719 54.068 14.5125 53.9082 14.8292L48.5252 25.5873L43.1423 14.8292C42.9574 14.5683 42.6848 14.3824 42.3744 14.3056C42.0639 14.2287 41.7362 14.266 41.4509 14.4105C41.1656 14.5551 40.9417 14.7973 40.8201 15.0931C40.6985 15.3889 40.6871 15.7185 40.7882 16.022L47.3717 29.1969C47.4817 29.419 47.6518 29.6059 47.8626 29.7363C48.0734 29.8666 48.3166 29.9353 48.5645 29.9345C48.8116 29.9366 49.0542 29.8684 49.264 29.7378C49.4738 29.6072 49.6422 29.4196 49.7493 29.1969L56.3407 16.022C56.4176 15.863 56.4622 15.6903 56.4718 15.5139C56.4814 15.3375 56.456 15.161 56.3968 14.9946C56.3377 14.8282 56.2461 14.6751 56.1274 14.5444C56.0086 14.4136 55.8651 14.3077 55.7051 14.2329Z" fill="white"/>
<path d="M79.0966 8.59912C78.7413 8.60118 78.4012 8.74321 78.15 8.99441C77.8988 9.2456 77.7568 9.5857 77.7547 9.94094V16.0772C76.3984 14.8801 74.6727 14.1842 72.8653 14.1054C71.058 14.0266 69.2783 14.5698 67.8229 15.6443C66.3675 16.7188 65.3244 18.2597 64.8676 20.0101C64.4107 21.7605 64.5677 23.6146 65.3124 25.2633C66.057 26.912 67.3443 28.2556 68.9596 29.0702C70.5749 29.8847 72.4206 30.1209 74.189 29.7393C75.9574 29.3578 77.5415 28.3816 78.6773 26.9736C79.8131 25.5655 80.4319 23.8107 80.4305 22.0016V9.95663C80.4326 9.77976 80.3997 9.60423 80.3337 9.44013C80.2677 9.27603 80.1698 9.1266 80.0459 9.00044C79.9219 8.87428 79.7742 8.77387 79.6113 8.705C79.4484 8.63613 79.2734 8.60014 79.0966 8.59912ZM77.7547 22.0173C77.7547 23.054 77.4473 24.0674 76.8714 24.9294C76.2954 25.7914 75.4767 26.4633 74.5189 26.86C73.5611 27.2567 72.5072 27.3605 71.4904 27.1583C70.4736 26.956 69.5396 26.4568 68.8066 25.7237C68.0735 24.9907 67.5743 24.0567 67.372 23.0399C67.1698 22.0231 67.2736 20.9692 67.6703 20.0114C68.067 19.0536 68.7389 18.2349 69.6009 17.659C70.4629 17.083 71.4763 16.7756 72.513 16.7756C73.9026 16.7776 75.2346 17.3306 76.2172 18.3131C77.1998 19.2957 77.7527 20.6277 77.7547 22.0173Z" fill="white"/>
<path d="M18.1028 5.16241C19.4463 5.1637 20.7847 5.32705 22.0891 5.64891C22.2496 5.67877 22.4155 5.65209 22.5585 5.57341C22.7016 5.49472 22.813 5.36889 22.8737 5.21733C22.9088 5.12436 22.9239 5.02502 22.918 4.92581C22.912 4.82661 22.8852 4.72977 22.8393 4.64164C22.7934 4.5535 22.7294 4.47605 22.6515 4.41434C22.5736 4.35264 22.4835 4.30807 22.3872 4.28355C19.5768 3.6034 16.6446 3.6034 13.8341 4.28355C13.7378 4.30807 13.6478 4.35264 13.5699 4.41434C13.492 4.47605 13.428 4.5535 13.382 4.64164C13.3361 4.72977 13.3093 4.82661 13.3034 4.92581C13.2975 5.02502 13.3125 5.12436 13.3476 5.21733C13.4084 5.36889 13.5197 5.49472 13.6628 5.57341C13.8059 5.65209 13.9718 5.67877 14.1323 5.64891C15.4312 5.32656 16.7645 5.1632 18.1028 5.16241Z" fill="#5B627D"/>
<path d="M26.7108 7.0292C26.6891 7.16439 26.7082 7.30296 26.7655 7.42731C26.8227 7.55166 26.9157 7.65617 27.0325 7.72757C30.1032 9.66569 32.4603 12.5498 33.7482 15.9449C35.0361 19.34 35.185 23.0619 34.1724 26.549C33.1598 30.0361 31.0406 33.0993 28.1346 35.2765C25.2285 37.4537 21.6933 38.6268 18.0621 38.6188C14.431 38.6108 10.9009 37.4222 8.00447 35.2322C5.10805 33.0422 3.00239 29.9696 2.00515 26.4781C1.00792 22.9865 1.17321 19.2654 2.47609 15.876C3.77896 12.4866 6.14875 9.61291 9.22794 7.68834C9.34546 7.61724 9.43941 7.51307 9.49803 7.38885C9.55665 7.26463 9.57734 7.12588 9.55751 6.98997C9.53992 6.8758 9.49428 6.76778 9.42469 6.67558C9.35509 6.58338 9.26372 6.50989 9.15875 6.46168C9.05377 6.41347 8.93848 6.39205 8.8232 6.39934C8.70791 6.40663 8.59624 6.44241 8.49818 6.50346C5.16458 8.59447 2.60162 11.7131 1.19613 15.3887C-0.209372 19.0642 -0.381128 23.0972 0.706778 26.879C1.79468 30.6607 4.08321 33.986 7.22695 36.3528C10.3707 38.7197 14.199 39.9997 18.1342 39.9997C22.0693 39.9997 25.8976 38.7197 29.0413 36.3528C32.1851 33.986 34.4736 30.6607 35.5615 26.879C36.6494 23.0972 36.4777 19.0642 35.0722 15.3887C33.6667 11.7131 31.1037 8.59447 27.7701 6.50346C27.6689 6.44394 27.5545 6.4106 27.4372 6.40643C27.3198 6.40227 27.2033 6.42742 27.0982 6.47961C26.993 6.5318 26.9025 6.60939 26.8349 6.70535C26.7672 6.80131 26.7246 6.91261 26.7108 7.0292Z" fill="#5B627D"/>
<path d="M31.4112 16.8307C29.423 14.9094 27.0435 13.44 24.4353 12.5228C23.5912 12.2289 22.7288 11.9904 21.8536 11.8087C19.3984 11.317 16.87 11.317 14.4148 11.8087C13.5386 11.9824 12.6758 12.2184 11.8332 12.5149C9.19002 13.4311 6.77951 14.9149 4.77098 16.8621C4.65981 16.9709 4.57564 17.1042 4.52523 17.2514C4.47481 17.3985 4.45955 17.5554 4.48065 17.7096L6.22266 31.6064C7.65846 33.3642 9.46713 34.7807 11.5178 35.7535C13.5684 36.7263 15.8096 37.2309 18.0793 37.2309C20.349 37.2309 22.5902 36.7263 24.6408 35.7535C26.6915 34.7807 28.5001 33.3642 29.9359 31.6064L30.1949 29.5113C29.5151 29.8689 28.7581 30.0548 27.9899 30.0527C27.3285 30.0483 26.6749 29.9099 26.0684 29.6459C25.462 29.3819 24.9153 28.9978 24.4614 28.5168C24.0075 28.0357 23.6557 27.4677 23.4274 26.847C23.199 26.2262 23.0988 25.5657 23.1327 24.9051C23.0999 24.2452 23.2009 23.5855 23.4298 22.9657C23.6586 22.3459 24.0106 21.7788 24.4644 21.2986C24.9182 20.8184 25.4645 20.435 26.0704 20.1715C26.6763 19.9081 27.3292 19.7699 27.9899 19.7654C29.1482 19.7659 30.2657 20.1933 31.1287 20.966C31.1672 21.0006 31.2039 21.0373 31.2385 21.0759L31.6623 17.6782C31.6878 17.5271 31.6785 17.3722 31.6349 17.2253C31.5914 17.0784 31.5149 16.9435 31.4112 16.8307ZM16.918 29.5662C16.2283 29.9285 15.4606 30.1171 14.6816 30.1155C14.013 30.111 13.3522 29.9712 12.7391 29.7045C12.126 29.4378 11.5733 29.0496 11.1143 28.5635C10.6553 28.0773 10.2995 27.5032 10.0683 26.8758C9.8372 26.2484 9.73553 25.5807 9.76945 24.913C9.73662 24.2459 9.8391 23.579 10.0707 22.9526C10.3024 22.3261 10.6583 21.753 11.1172 21.2677C11.5761 20.7824 12.1285 20.3949 12.7411 20.1287C13.3536 19.8624 14.0137 19.7228 14.6816 19.7184C15.8631 19.7154 17.0048 20.1453 17.891 20.9268C18.4322 21.4379 18.8605 22.0565 19.1484 22.7431C19.4362 23.4296 19.5772 24.1687 19.5624 24.913C19.5897 25.8563 19.3576 26.7891 18.8913 27.6096C18.425 28.4301 17.7424 29.1069 16.918 29.5662Z" fill="#46DB83"/>
<path d="M27.582 3.79639C27.563 3.82663 27.542 3.85555 27.519 3.88294C27.542 3.85555 27.563 3.82663 27.582 3.79639Z" fill="#46DB83"/>
<path d="M17.2082 21.727C16.5239 21.1115 15.6333 20.7754 14.7129 20.7854C14.1867 20.7952 13.6678 20.9108 13.1872 21.1252C12.7066 21.3397 12.274 21.6487 11.9152 22.0338C11.5565 22.4189 11.2789 22.8723 11.099 23.3669C10.9191 23.8615 10.8405 24.3872 10.8679 24.9128C10.8394 25.4391 10.9172 25.9657 11.0966 26.4612C11.276 26.9567 11.5534 27.411 11.9123 27.797C12.2712 28.1829 12.7041 28.4926 13.1853 28.7076C13.6664 28.9226 14.186 29.0384 14.7129 29.0481C15.309 29.0472 15.896 28.9018 16.4235 28.6244C17.0836 28.2614 17.6297 27.7221 18.0011 27.0667C18.3724 26.4113 18.5543 25.6656 18.5265 24.9128C18.5448 24.3187 18.4368 23.7275 18.2095 23.1783C17.9823 22.6291 17.641 22.1344 17.2082 21.727ZM14.9719 26.239C14.8725 26.4171 14.7274 26.5654 14.5515 26.6687C14.3756 26.772 14.1753 26.8264 13.9714 26.8264C13.7674 26.8264 13.5672 26.772 13.3913 26.6687C13.2154 26.5654 13.0703 26.4171 12.9709 26.239C12.6944 25.8067 12.5575 25.2999 12.5786 24.7873C12.5836 24.2848 12.7335 23.7944 13.0101 23.3748C13.1203 23.2084 13.2708 23.0724 13.4476 22.9796C13.6244 22.8869 13.8218 22.8403 14.0214 22.8442C14.221 22.8481 14.4164 22.9024 14.5894 23.002C14.7625 23.1017 14.9075 23.2434 15.0111 23.4141C15.282 23.8397 15.4162 24.3381 15.3956 24.8422C15.4067 25.3459 15.2462 25.8385 14.9405 26.239H14.9719Z" fill="white"/>
<path d="M14.2343 23.6729C14.1053 23.6729 13.9815 23.7241 13.8903 23.8153C13.7991 23.9066 13.7478 24.0303 13.7478 24.1594C13.7628 24.2768 13.8201 24.3847 13.9089 24.4629C13.9977 24.5411 14.112 24.5842 14.2304 24.5842C14.3487 24.5842 14.463 24.5411 14.5519 24.4629C14.6407 24.3847 14.698 24.2768 14.713 24.1594C14.714 24.0958 14.7024 24.0328 14.6788 23.9738C14.6552 23.9148 14.6201 23.8611 14.5756 23.8158C14.531 23.7705 14.4779 23.7346 14.4193 23.71C14.3607 23.6855 14.2978 23.6728 14.2343 23.6729Z" fill="white"/>
<path d="M31.1052 22.4331C31.0189 22.3075 30.9247 22.182 30.8305 22.0643C30.7266 21.9486 30.6166 21.8386 30.501 21.7347C30.4218 21.6557 30.3351 21.5847 30.242 21.5228C29.5957 21.043 28.8106 20.7868 28.0057 20.7931C27.6088 20.7911 27.2142 20.8521 26.8365 20.9736C26.594 21.0485 26.3599 21.1484 26.1381 21.2717C26.0084 21.3491 25.8827 21.4329 25.7614 21.5228C25.2544 21.9288 24.8487 22.4471 24.5763 23.0367C24.304 23.6264 24.1724 24.2713 24.1921 24.9205C24.144 25.9027 24.4666 26.8671 25.0958 27.6228C25.725 28.3785 26.6151 28.8703 27.5898 29.0009H27.9978C28.152 29.0089 28.3066 29.0089 28.4608 29.0009C28.9138 28.953 29.3547 28.8255 29.7634 28.6243L30.0694 28.4438H30.1322L30.4068 28.2398C30.8789 27.8345 31.2549 27.3291 31.5073 26.7604C31.7598 26.1917 31.8824 25.5739 31.8663 24.9519C31.8805 24.0536 31.6144 23.1732 31.1052 22.4331ZM28.2568 26.2388C28.1506 26.4148 28.0011 26.5606 27.8225 26.6623C27.6439 26.764 27.4422 26.8181 27.2367 26.8195C27.0353 26.8098 26.8396 26.7502 26.667 26.6461C26.4944 26.542 26.3504 26.3967 26.248 26.2231C25.9621 25.7944 25.8193 25.2863 25.8399 24.7714C25.8422 24.2697 25.9893 23.7792 26.2636 23.359C26.3693 23.1932 26.5156 23.0571 26.6886 22.9637C26.8617 22.8703 27.0557 22.8227 27.2524 22.8254C27.4551 22.8256 27.6542 22.8786 27.8303 22.979C28.0064 23.0794 28.1534 23.2239 28.2568 23.3982C28.5338 23.8215 28.671 24.321 28.6491 24.8264C28.6783 25.3276 28.5403 25.8244 28.2568 26.2388Z" fill="white"/>
<path d="M27.5426 23.6729C27.479 23.6728 27.4162 23.6855 27.3576 23.71C27.299 23.7346 27.2459 23.7705 27.2013 23.8158C27.1567 23.8611 27.1217 23.9148 27.0981 23.9738C27.0745 24.0328 27.0629 24.0958 27.0639 24.1594C27.0639 24.2863 27.1143 24.4081 27.2041 24.4978C27.2939 24.5876 27.4156 24.638 27.5426 24.638C27.6061 24.6391 27.6692 24.6274 27.7282 24.6039C27.7871 24.5803 27.8408 24.5452 27.8861 24.5006C27.9314 24.4561 27.9674 24.403 27.9919 24.3444C28.0164 24.2858 28.0291 24.2229 28.0291 24.1594C28.0291 24.0303 27.9778 23.9066 27.8866 23.8153C27.7953 23.7241 27.6716 23.6729 27.5426 23.6729Z" fill="white"/>
<path d="M11.8331 12.5223C11.4015 9.79159 10.9621 6.95886 10.609 4.67542C10.0423 4.67542 9.49465 4.47102 9.06657 4.09974C8.63848 3.72846 8.35869 3.21523 8.27855 2.65427C8.19841 2.09331 8.32331 1.52226 8.63031 1.04597C8.93732 0.569681 9.40582 0.220116 9.94982 0.0614516C10.5455 -0.0773785 11.1718 0.0210779 11.6961 0.335975C12.2205 0.650871 12.6017 1.15748 12.759 1.74853C12.8892 2.26346 12.8414 2.80729 12.6235 3.29165C12.4055 3.77601 12.0302 4.17242 11.5584 4.41647L14.4147 11.8082C13.5384 11.9819 12.6757 12.2179 11.8331 12.5145V12.5223Z" fill="#5B627D"/>
<path d="M21.8536 11.8006L24.7099 4.39318C24.219 4.10946 23.847 3.65808 23.6623 3.12202C23.4775 2.58595 23.4925 2.00122 23.7044 1.47531C23.9163 0.949385 24.3109 0.517615 24.8156 0.259354C25.3204 0.00109365 25.9014 -0.0663041 26.4519 0.0695506C27.005 0.237393 27.477 0.602866 27.778 1.09633C28.079 1.58979 28.188 2.17674 28.0841 2.74534C27.9822 3.30471 27.6814 3.80832 27.2372 4.16315C26.7929 4.51797 26.2353 4.70003 25.6672 4.67567C25.3141 6.95127 24.8825 9.79184 24.4353 12.5226C23.5911 12.2287 22.7288 11.9902 21.8536 11.8085V11.8006Z" fill="#5B627D"/>
<path d="M149.821 11.4786C149.961 11.4139 150.078 11.3095 150.159 11.1783C150.24 11.0471 150.281 10.895 150.276 10.7409C150.276 10.176 149.86 9.90918 149.248 9.90918H148.408C148.317 9.90918 148.229 9.94556 148.164 10.0103C148.099 10.0751 148.063 10.1629 148.063 10.2544V12.0592C148.063 12.1508 148.099 12.2386 148.164 12.3034C148.229 12.3681 148.317 12.4045 148.408 12.4045C148.5 12.4045 148.588 12.3681 148.652 12.3034C148.717 12.2386 148.754 12.1508 148.754 12.0592V11.6198H149.075L149.593 12.2711C149.624 12.3127 149.664 12.3465 149.711 12.3697C149.757 12.3929 149.808 12.4048 149.86 12.4045C149.904 12.4055 149.948 12.3978 149.99 12.3818C150.031 12.3658 150.069 12.3418 150.101 12.3112C150.133 12.2806 150.159 12.244 150.177 12.2035C150.194 12.1629 150.204 12.1192 150.205 12.0749C150.207 11.9846 150.173 11.8973 150.111 11.8317L149.821 11.4786ZM149.209 11.0784H148.769V10.4898H149.209C149.452 10.4898 149.585 10.5997 149.585 10.7802C149.585 10.9607 149.436 11.0784 149.193 11.0784H149.209Z" fill="white"/>
<path d="M149.083 13.6839C148.58 13.6932 148.085 13.5526 147.662 13.2798C147.239 13.0071 146.907 12.6146 146.708 12.1523C146.509 11.6901 146.452 11.1791 146.544 10.6844C146.637 10.1897 146.874 9.73365 147.227 9.37447C147.579 9.01528 148.031 8.76917 148.524 8.6675C149.017 8.56582 149.529 8.61319 149.995 8.80356C150.46 8.99393 150.859 9.31869 151.14 9.73645C151.42 10.1542 151.57 10.6461 151.57 11.1493C151.575 11.8147 151.315 12.4547 150.849 12.9296C150.383 13.4044 149.748 13.6756 149.083 13.6839ZM149.083 9.06207C148.669 9.05428 148.261 9.17004 147.913 9.39461C147.564 9.61917 147.291 9.94237 147.127 10.323C146.963 10.7037 146.916 11.1245 146.992 11.532C147.068 11.9394 147.264 12.315 147.554 12.6108C147.844 12.9067 148.216 13.1094 148.622 13.1932C149.028 13.2769 149.449 13.238 149.833 13.0812C150.217 12.9244 150.545 12.657 150.776 12.3129C151.007 11.9689 151.131 11.5638 151.131 11.1493C151.135 10.6013 150.922 10.0739 150.538 9.68265C150.154 9.29143 149.631 9.06828 149.083 9.06207Z" fill="white"/>
</svg>
